<svg width="49" height="49" viewBox="0 0 49 49" fill="none" xmlns="http://www.w3.org/2000/svg">
<circle cx="24.5" cy="24.5" r="23.5" fill="#FDF301" stroke="#212428" stroke-width="2"/>
<path d="M20.6716 23.3302C19.9316 26.0918 18.4923 28.3411 16.8132 29.7582C15.1309 31.1781 13.2918 31.7065 11.6539 31.2676C10.016 30.8287 8.6875 29.4516 7.94049 27.3808C7.19494 25.314 7.07307 22.6464 7.81304 19.8848C8.553 17.1232 9.99234 14.8739 11.6714 13.4569C13.3537 12.037 15.1928 11.5086 16.8307 11.9475C18.4686 12.3863 19.7971 13.7635 20.5441 15.8343C21.2897 17.9011 21.4115 20.5686 20.6716 23.3302Z" fill="white" stroke="#212428" stroke-width="2"/>
<ellipse cx="11.2318" cy="21.3067" rx="4.41544" ry="6.34445" transform="rotate(15 11.2318 21.3067)" fill="#212428"/>
<path d="M34.6716 25.3659C33.9316 28.1275 32.4923 30.3768 30.8132 31.7938C29.1309 33.2137 27.2918 33.7421 25.6539 33.3032C24.016 32.8644 22.6875 31.4872 21.9405 29.4164C21.1949 27.3496 21.0731 24.6821 21.813 21.9205C22.553 19.1589 23.9923 16.9096 25.6714 15.4925C27.3537 14.0726 29.1928 13.5442 30.8307 13.9831C32.4686 14.422 33.7971 15.7991 34.5441 17.8699C35.2897 19.9367 35.4115 22.6043 34.6716 25.3659Z" fill="white" stroke="#212428" stroke-width="2"/>
<ellipse cx="25.2318" cy="23.3424" rx="4.41544" ry="6.34445" transform="rotate(15 25.2318 23.3424)" fill="#212428"/>
<circle cx="18" cy="36.0356" r="2" fill="#212428"/>
<path d="M20.6716 23.3302C19.9316 26.0918 18.4923 28.3411 16.8132 29.7582C15.1309 31.1781 13.2918 31.7065 11.6539 31.2676C10.016 30.8287 8.6875 29.4516 7.94049 27.3808C7.19494 25.314 7.07307 22.6464 7.81304 19.8848C8.553 17.1232 9.99234 14.8739 11.6714 13.4569C13.3537 12.037 15.1928 11.5086 16.8307 11.9475C18.4686 12.3863 19.7971 13.7635 20.5441 15.8343C21.2897 17.9011 21.4115 20.5686 20.6716 23.3302Z" fill="white" stroke="#212428" stroke-width="2"/>
<ellipse cx="11.2318" cy="21.3067" rx="4.41544" ry="6.34445" transform="rotate(15 11.2318 21.3067)" fill="#212428"/>
<path d="M16.7136 9.15142C14.897 10.9325 12.5001 12.5 8.50014 11.5" stroke="#212428" stroke-width="2" stroke-linecap="round"/>
<path d="M40.2989 19.5557C37.861 18.8286 32.571 15.8288 30.9146 9.64692" stroke="#212428" stroke-width="2" stroke-linecap="round"/>
<path d="M32.847 33.6295C33.4405 34.6513 33.1475 35.9294 32.1923 36.4843C31.2372 37.0391 29.9818 36.6605 29.3882 35.6387C28.7946 34.6169 29.7595 34.4951 30.7146 33.9403C31.6697 33.3855 32.2534 32.6077 32.847 33.6295Z" fill="#00FFF0"/>
<path d="M32.917 33.7503C33.4718 34.7054 33.1474 35.9295 32.1922 36.4843C31.2371 37.0391 30.0131 36.7146 29.4583 35.7595" stroke="#212428" stroke-width="2" stroke-linecap="round"/>
</svg>
