<svg width="16" height="16" viewBox="0 0 16 16" fill="none" xmlns="http://www.w3.org/2000/svg">
<path d="M8 10C9.10457 10 10 9.10457 10 8C10 6.89543 9.10457 6 8 6C6.89543 6 6 6.89543 6 8C6 9.10457 6.89543 10 8 10Z" fill="white"/>
<path d="M13.333 2.66667H11.2197L10.393 1.76667C10.2688 1.63026 10.1174 1.52127 9.9487 1.44666C9.77996 1.37204 9.59751 1.33345 9.41301 1.33333H6.58634C6.21301 1.33333 5.85301 1.49333 5.59967 1.76667L4.77967 2.66667H2.66634C1.93301 2.66667 1.33301 3.26667 1.33301 4V12C1.33301 12.7333 1.93301 13.3333 2.66634 13.3333H13.333C14.0663 13.3333 14.6663 12.7333 14.6663 12V4C14.6663 3.26667 14.0663 2.66667 13.333 2.66667ZM7.99967 11.3333C6.15967 11.3333 4.66634 9.84 4.66634 8C4.66634 6.16 6.15967 4.66667 7.99967 4.66667C9.83967 4.66667 11.333 6.16 11.333 8C11.333 9.84 9.83967 11.3333 7.99967 11.3333Z" fill="white"/>
</svg>
