<svg width="49" height="49" viewBox="0 0 49 49" fill="none" xmlns="http://www.w3.org/2000/svg">
<circle cx="24.5" cy="24.5" r="23.5" fill="#FDF301" stroke="#212428" stroke-width="2"/>
<mask id="path-2-inside-1_128_982" fill="white">
<path fill-rule="evenodd" clip-rule="evenodd" d="M46.8103 44.8491C47.5455 43.7428 47.9739 42.4149 47.9739 40.9869C47.9739 37.1282 44.8457 34 40.9869 34C37.1282 34 34 37.1282 34 40.9869C34 44.8457 37.1282 47.9739 40.9869 47.9739C42.4429 47.9739 43.7949 47.5285 44.9141 46.7666L46.6981 48.5506C47.2247 49.0772 48.0784 49.0772 48.605 48.5506C49.1315 48.0241 49.1315 47.1704 48.605 46.6438L46.8103 44.8491Z"/>
</mask>
<path fill-rule="evenodd" clip-rule="evenodd" d="M46.8103 44.8491C47.5455 43.7428 47.9739 42.4149 47.9739 40.9869C47.9739 37.1282 44.8457 34 40.9869 34C37.1282 34 34 37.1282 34 40.9869C34 44.8457 37.1282 47.9739 40.9869 47.9739C42.4429 47.9739 43.7949 47.5285 44.9141 46.7666L46.6981 48.5506C47.2247 49.0772 48.0784 49.0772 48.605 48.5506C49.1315 48.0241 49.1315 47.1704 48.605 46.6438L46.8103 44.8491Z" fill="white"/>
<path d="M46.8103 44.8491L45.1446 43.7421L44.2384 45.1057L45.3961 46.2633L46.8103 44.8491ZM44.9141 46.7666L46.3283 45.3524L45.1574 44.1815L43.7885 45.1134L44.9141 46.7666ZM45.9739 40.9869C45.9739 42.009 45.6686 42.9537 45.1446 43.7421L48.476 45.9561C49.4225 44.5319 49.9739 42.8208 49.9739 40.9869H45.9739ZM40.9869 36C43.7411 36 45.9739 38.2327 45.9739 40.9869H49.9739C49.9739 36.0236 45.9503 32 40.9869 32V36ZM36 40.9869C36 38.2327 38.2327 36 40.9869 36V32C36.0236 32 32 36.0236 32 40.9869H36ZM40.9869 45.9739C38.2327 45.9739 36 43.7411 36 40.9869H32C32 45.9503 36.0236 49.9739 40.9869 49.9739V45.9739ZM43.7885 45.1134C42.9907 45.6565 42.0289 45.9739 40.9869 45.9739V49.9739C42.8569 49.9739 44.5991 49.4005 46.0396 48.4198L43.7885 45.1134ZM48.1123 47.1364L46.3283 45.3524L43.4998 48.1808L45.2839 49.9649L48.1123 47.1364ZM47.1908 47.1364C47.4452 46.882 47.8578 46.882 48.1123 47.1364L45.2839 49.9649C46.5915 51.2725 48.7116 51.2725 50.0192 49.9649L47.1908 47.1364ZM47.1908 48.058C46.9363 47.8035 46.9363 47.3909 47.1908 47.1364L50.0192 49.9649C51.3268 48.6572 51.3268 46.5372 50.0192 45.2296L47.1908 48.058ZM45.3961 46.2633L47.1908 48.058L50.0192 45.2296L48.2245 43.4349L45.3961 46.2633Z" fill="#212428" mask="url(#path-2-inside-1_128_982)"/>
<path d="M20.6716 23.3302C19.9316 26.0918 18.4923 28.3411 16.8132 29.7582C15.1309 31.1781 13.2918 31.7065 11.6539 31.2676C10.016 30.8287 8.6875 29.4516 7.94049 27.3808C7.19494 25.314 7.07307 22.6464 7.81304 19.8848C8.553 17.1232 9.99234 14.8739 11.6714 13.4569C13.3537 12.037 15.1928 11.5086 16.8307 11.9475C18.4686 12.3863 19.7971 13.7635 20.5441 15.8343C21.2897 17.9011 21.4115 20.5686 20.6716 23.3302Z" fill="white" stroke="#212428" stroke-width="2"/>
<ellipse cx="11.2318" cy="21.3067" rx="4.41544" ry="6.34445" transform="rotate(15 11.2318 21.3067)" fill="#212428"/>
<path d="M34.6716 25.3659C33.9316 28.1275 32.4923 30.3768 30.8132 31.7938C29.1309 33.2137 27.2918 33.7421 25.6539 33.3032C24.016 32.8644 22.6875 31.4872 21.9405 29.4164C21.1949 27.3496 21.0731 24.6821 21.813 21.9205C22.553 19.1589 23.9923 16.9096 25.6714 15.4925C27.3537 14.0726 29.1928 13.5442 30.8307 13.9831C32.4686 14.422 33.7971 15.7991 34.5441 17.8699C35.2897 19.9367 35.4115 22.6043 34.6716 25.3659Z" fill="white" stroke="#212428" stroke-width="2"/>
<ellipse cx="25.2318" cy="23.3424" rx="4.41544" ry="6.34445" transform="rotate(15 25.2318 23.3424)" fill="#212428"/>
<circle cx="18" cy="36.0356" r="2" fill="#212428"/>
<path d="M20.6716 23.3302C19.9316 26.0918 18.4923 28.3411 16.8132 29.7582C15.1309 31.1781 13.2918 31.7065 11.6539 31.2676C10.016 30.8287 8.6875 29.4516 7.94049 27.3808C7.19494 25.314 7.07307 22.6464 7.81304 19.8848C8.553 17.1232 9.99234 14.8739 11.6714 13.4569C13.3537 12.037 15.1928 11.5086 16.8307 11.9475C18.4686 12.3863 19.7971 13.7635 20.5441 15.8343C21.2897 17.9011 21.4115 20.5686 20.6716 23.3302Z" fill="white" stroke="#212428" stroke-width="2"/>
<ellipse cx="11.2318" cy="21.3067" rx="4.41544" ry="6.34445" transform="rotate(15 11.2318 21.3067)" fill="#212428"/>
</svg>
