<svg width="40" height="40" viewBox="0 0 40 40" fill="none" xmlns="http://www.w3.org/2000/svg">
<circle cx="20" cy="20" r="19.5" fill="#FDF301" stroke="#212428"/>
<circle cx="20" cy="20.0001" r="11.5988" fill="#FDF301" stroke="#212428"/>
<path d="M19.5851 19.9144C19.2199 21.2771 18.5098 22.3867 17.6817 23.0856C16.852 23.7859 15.9458 24.0458 15.1394 23.8297C14.3331 23.6137 13.6783 22.9355 13.3099 21.9142C12.9422 20.8949 12.882 19.5789 13.2471 18.2162C13.6122 16.8535 14.3224 15.7439 15.1505 15.045C15.9802 14.3447 16.8864 14.0848 17.6927 14.3009C18.499 14.5169 19.1538 15.1951 19.5223 16.2164C19.89 17.2357 19.9502 18.5517 19.5851 19.9144Z" fill="white" stroke="#212428"/>
<ellipse cx="14.9293" cy="18.9168" rx="2.18046" ry="3.13306" transform="rotate(15 14.9293 18.9168)" fill="#212428"/>
<path d="M26.4986 20.9198C26.1335 22.2825 25.4233 23.3921 24.5953 24.091C23.7655 24.7913 22.8594 25.0512 22.053 24.8351C21.2467 24.6191 20.5919 23.9409 20.2234 22.9195C19.8558 21.9003 19.7955 20.5842 20.1607 19.2215C20.5258 17.8589 21.236 16.7492 22.064 16.0504C22.8938 15.3501 23.7999 15.0902 24.6063 15.3062C25.4126 15.5223 26.0674 16.2005 26.4358 17.2218C26.8035 18.2411 26.8638 19.5571 26.4986 20.9198Z" fill="white" stroke="#212428"/>
<ellipse cx="21.8429" cy="19.9222" rx="2.18046" ry="3.13306" transform="rotate(15 21.8429 19.9222)" fill="#212428"/>
<circle cx="18.2716" cy="26.1903" r="0.987654" fill="#212428"/>
<path d="M19.5851 19.9144C19.2199 21.2771 18.5098 22.3867 17.6817 23.0856C16.852 23.7859 15.9458 24.0458 15.1394 23.8297C14.3331 23.6137 13.6783 22.9355 13.3099 21.9142C12.9422 20.8949 12.882 19.5789 13.2471 18.2162C13.6122 16.8535 14.3224 15.7439 15.1505 15.045C15.9802 14.3447 16.8864 14.0848 17.6927 14.3009C18.499 14.5169 19.1538 15.1951 19.5223 16.2164C19.89 17.2357 19.9502 18.5517 19.5851 19.9144Z" fill="white" stroke="#212428"/>
<ellipse cx="14.9293" cy="18.9168" rx="2.18046" ry="3.13306" transform="rotate(15 14.9293 18.9168)" fill="#212428"/>
<path d="M16.4146 33.7334L16.7705 34.7691L17.2817 34.8832L17.4829 33.972L18.1246 34.1152L17.4866 37.005L16.3301 36.7468C16.0904 36.6932 15.8926 36.6057 15.737 36.4841C15.5808 36.3649 15.4733 36.2206 15.4145 36.0512C15.3557 35.8818 15.3482 35.6979 15.392 35.4993C15.4359 35.3008 15.5201 35.1372 15.6446 35.0088C15.7663 34.8822 15.9206 34.7976 16.1076 34.755L15.6706 33.5673L16.4146 33.7334ZM17.1557 35.4541L16.6691 35.3454C16.4975 35.3071 16.3569 35.3129 16.2472 35.3628C16.1346 35.4146 16.0635 35.5078 16.0338 35.6426C16.004 35.7773 16.0295 35.8909 16.1102 35.9833C16.1881 36.0776 16.3128 36.1439 16.4844 36.1822L16.9709 36.2908L17.1557 35.4541Z" fill="#212428"/>
<path d="M13.2934 35.7989L11.3417 34.8026L11.6 34.2909L12.9655 34.9879L13.2369 34.4503L11.9841 33.8108L12.2424 33.2991L13.4952 33.9386L13.7813 33.3719L12.3868 32.66L12.6451 32.1483L14.6257 33.1594L13.2934 35.7989Z" fill="#212428"/>
<path d="M6.76512 30.9527L9.4236 29.4218L9.9007 29.887L8.99446 31.5886L10.6578 30.6253L11.1349 31.0906L9.69511 33.8098L9.18949 33.3168L10.1666 31.573L8.46348 32.6088L7.97342 32.131L8.94809 30.3949L7.2474 31.423L6.76512 30.9527Z" fill="#212428"/>
<path d="M6.84294 26.4844L7.37832 27.498L7.97887 27.4117L8.29738 28.0147L5.16237 28.3896L4.84216 27.7834L6.90642 25.3812L7.25035 26.0324L6.84294 26.4844ZM6.43384 26.9332L5.70076 27.7443L6.77946 27.5876L6.43384 26.9332Z" fill="#212428"/>
<path d="M6.17803 22.6447L5.40033 23.4122L5.51704 23.9256L6.42192 23.7176L6.56842 24.362L3.69886 25.0216L3.43484 23.8603C3.38011 23.6195 3.37396 23.4024 3.41641 23.2088C3.45651 23.0158 3.54003 22.8562 3.66699 22.7302C3.79394 22.6041 3.956 22.5185 4.15317 22.4731C4.35034 22.4278 4.53333 22.4342 4.70214 22.4922C4.86806 22.5485 5.01025 22.6524 5.12869 22.804L6.0082 21.8976L6.17803 22.6447ZM4.95017 24.0559L4.83909 23.5673C4.79992 23.395 4.73439 23.2697 4.64251 23.1915C4.54774 23.1114 4.43346 23.0868 4.29967 23.1175C4.16587 23.1483 4.07476 23.2201 4.02635 23.3331C3.97504 23.4443 3.96898 23.586 4.00815 23.7583L4.11923 24.2469L4.95017 24.0559Z" fill="#212428"/>
<path d="M2.96289 20.6521L3.01411 19.5056C3.02848 19.1838 3.10355 18.9061 3.23933 18.6723C3.37271 18.4383 3.55411 18.2623 3.78354 18.1442C4.01057 18.026 4.2684 17.9734 4.55706 17.9865C4.84571 17.9995 5.09902 18.0752 5.317 18.2135C5.53257 18.3517 5.69634 18.5433 5.80832 18.7883C5.9203 19.0333 5.96911 19.3167 5.95473 19.6384L5.90352 20.785L2.96289 20.6521ZM5.37431 19.6013C5.38706 19.3158 5.32008 19.0886 5.17338 18.9196C5.02426 18.7505 4.80899 18.6595 4.52756 18.6468C4.24612 18.6341 4.02361 18.7053 3.86002 18.8603C3.69643 19.0153 3.60825 19.2355 3.5955 19.5209L3.5733 20.018L5.35211 20.0984L5.37431 19.6013Z" fill="#212428"/>
<path d="M3.76051 14.772C3.82755 14.5647 3.92718 14.3898 4.05941 14.2472C4.19164 14.1046 4.34361 14.0066 4.51531 13.9533C4.68547 13.8969 4.8602 13.893 5.03948 13.9415L4.82942 14.5908C4.69982 14.5688 4.58614 14.5914 4.4884 14.6587C4.39066 14.7261 4.31757 14.8345 4.26915 14.9842C4.22297 15.127 4.21317 15.2473 4.23977 15.3451C4.26407 15.4422 4.31972 15.5049 4.40673 15.5334C4.47542 15.5559 4.53972 15.5489 4.59961 15.5125C4.6595 15.476 4.72338 15.4116 4.79125 15.3193C4.85757 15.2238 4.94374 15.0827 5.04977 14.8959C5.21444 14.606 5.3928 14.4186 5.58483 14.3338C5.77533 14.2458 5.98162 14.2382 6.20373 14.3109C6.37774 14.3678 6.51362 14.4683 6.61136 14.6123C6.70984 14.754 6.7655 14.9224 6.77832 15.1176C6.79343 15.3135 6.76672 15.5174 6.69819 15.7292C6.6237 15.9595 6.51659 16.1536 6.37686 16.3116C6.24016 16.468 6.08103 16.5764 5.89948 16.6367C5.71867 16.6946 5.52832 16.696 5.32842 16.6408L5.53737 15.9949C5.67842 16.0207 5.80804 15.9918 5.92623 15.9083C6.04287 15.8217 6.12987 15.6897 6.18723 15.5124C6.22894 15.3835 6.23459 15.2682 6.20416 15.1666C6.17448 15.0626 6.11384 14.9957 6.02225 14.9657C5.94898 14.9418 5.88086 14.9449 5.81787 14.9753C5.75564 15.0033 5.69133 15.0612 5.62495 15.149C5.55932 15.2344 5.48217 15.3594 5.3935 15.5239C5.23191 15.8199 5.05596 16.0233 4.86563 16.1342C4.6753 16.2451 4.45306 16.2589 4.1989 16.1758C4.03404 16.1219 3.90695 16.0255 3.81763 15.8868C3.72905 15.7458 3.68064 15.5785 3.67239 15.3848C3.66186 15.1904 3.69123 14.9861 3.76051 14.772Z" fill="#212428"/>
<path d="M6.30414 9.87708L7.68639 8.20818L8.13043 8.58009L7.16886 9.74106L7.68228 10.1711L8.53752 9.13848L8.97601 9.50574L8.12077 10.5383L8.98665 11.2636L8.56597 11.7715L6.30414 9.87708Z" fill="#212428"/>
<path d="M11.967 8.53684C11.7198 8.70941 11.4578 8.80971 11.1811 8.83774C10.9078 8.86639 10.6482 8.82357 10.4023 8.70931C10.155 8.59305 9.94758 8.41358 9.78009 8.17089C9.61261 7.92821 9.51866 7.67104 9.49825 7.39939C9.47647 7.12576 9.52673 6.86521 9.64904 6.61775C9.77195 6.36692 9.95705 6.15522 10.2043 5.98266C10.4516 5.81009 10.7126 5.71048 10.9873 5.68383C11.2626 5.6538 11.5239 5.69692 11.7711 5.81317C12.0171 5.92744 12.2238 6.10591 12.3912 6.3486C12.5587 6.59129 12.6534 6.84945 12.6751 7.12309C12.6956 7.39473 12.6436 7.65498 12.5193 7.90382C12.3984 8.15327 12.2143 8.36427 11.967 8.53684ZM11.6293 8.04749C11.7737 7.94671 11.8809 7.82178 11.951 7.67269C12.021 7.52361 12.0475 7.36661 12.0304 7.2017C12.0139 7.03342 11.9542 6.87468 11.8512 6.72549C11.7469 6.5743 11.6199 6.4625 11.4703 6.39009C11.3226 6.31629 11.1671 6.2863 11.0037 6.30012C10.8403 6.31393 10.6864 6.37123 10.542 6.47201C10.3976 6.57279 10.2904 6.69772 10.2204 6.8468C10.1503 6.99589 10.1229 7.15358 10.138 7.31987C10.1551 7.48478 10.2158 7.64283 10.3201 7.79401C10.4231 7.9432 10.5491 8.05569 10.6981 8.13148C10.8477 8.2039 11.0042 8.2332 11.1676 8.21938C11.331 8.20556 11.4849 8.14827 11.6293 8.04749Z" fill="#212428"/>
<path d="M16.0656 6.46077L15.2286 5.75927L14.7322 5.92732L15.0284 6.81195L14.4055 7.02289L13.4661 4.21756L14.5889 3.8374C14.8216 3.75859 15.0359 3.73075 15.2316 3.75389C15.4266 3.77473 15.5928 3.84237 15.7302 3.9568C15.8676 4.07124 15.9686 4.22484 16.0331 4.41759C16.0977 4.61035 16.1097 4.79409 16.0691 4.96879C16.03 5.14043 15.9414 5.29307 15.8032 5.42673L16.7878 6.21622L16.0656 6.46077ZM14.5467 5.37314L15.019 5.2132C15.1856 5.15679 15.303 5.07871 15.3713 4.97896C15.441 4.87615 15.454 4.75934 15.4102 4.62854C15.3664 4.49774 15.2862 4.41375 15.1696 4.37659C15.0545 4.33636 14.9136 4.34445 14.747 4.40085L14.2747 4.5608L14.5467 5.37314Z" fill="#212428"/>
<path d="M21.6182 5.40806L20.4799 5.32373L20.2327 5.88083L19.5555 5.83066L20.91 2.96289L21.5908 3.01333L22.5128 6.04975L21.7816 5.99558L21.6182 5.40806ZM21.4584 4.8208L21.1663 3.76488L20.7236 4.76637L21.4584 4.8208Z" fill="#212428"/>
<path d="M26.8116 6.3853L26.243 6.61264L25.9389 7.20281L25.3553 6.89874L26.7093 4.27041L27.293 4.57448L26.655 5.81286L28.3384 5.11914L29.0536 5.49171L27.4143 6.14708L27.7541 8.14844L27.0261 7.76919L26.8116 6.3853Z" fill="#212428"/>
<path d="M31.017 6.99813L29.1516 9.28795L28.6431 8.86905L30.5085 6.57923L31.017 6.99813Z" fill="#212428"/>
<path d="M32.5021 8.35053L32.843 8.78327L32.3686 11.0471L33.7841 9.91942L34.1923 10.4376L31.885 12.2757L31.5441 11.8429L32.0185 9.5791L30.603 10.7068L30.1948 10.1886L32.5021 8.35053Z" fill="#212428"/>
<path d="M35.2453 12.3048L35.6771 13.3672C35.7983 13.6653 35.8461 13.9491 35.8204 14.2187C35.7969 14.4873 35.7057 14.7236 35.5467 14.9276C35.3899 15.1307 35.1778 15.2872 34.9104 15.3971C34.6429 15.5071 34.3814 15.5453 34.1258 15.5117C33.8725 15.4772 33.6439 15.3724 33.44 15.1972C33.2361 15.022 33.0736 14.7854 32.9524 14.4873L32.5205 13.4249L35.2453 12.3048ZM33.4948 14.2761C33.6023 14.5406 33.7579 14.7186 33.9616 14.8101C34.1675 14.9007 34.4008 14.8924 34.6616 14.7852C34.9224 14.678 35.0947 14.5196 35.1785 14.3099C35.2623 14.1001 35.2505 13.863 35.143 13.5986L34.9557 13.138L33.3075 13.8155L33.4948 14.2761Z" fill="#212428"/>
<path d="M37.037 19.1233L37.0254 20.2601C37.0228 20.5143 36.976 20.7318 36.8851 20.9124C36.7941 21.0955 36.6675 21.2347 36.5052 21.3298C36.3429 21.425 36.1534 21.4715 35.9367 21.4693C35.7176 21.467 35.5266 21.4166 35.3639 21.3181C35.2036 21.2196 35.0798 21.0778 34.9926 20.8929C34.9054 20.7104 34.863 20.492 34.8656 20.2378L34.8705 19.762L34.0868 19.7539L34.0935 19.0929L37.037 19.1233ZM35.4474 20.2147C35.4455 20.4012 35.4874 20.5457 35.573 20.6483C35.6586 20.7533 35.7821 20.8066 35.9434 20.8083C36.1047 20.8099 36.228 20.7591 36.3134 20.6559C36.3987 20.5551 36.4423 20.4115 36.4442 20.225L36.4488 19.7783L35.452 19.768L35.4474 20.2147Z" fill="#212428"/>
<path d="M36.7514 23.3045L36.1985 25.4341L35.6463 25.2892L36.0332 23.7991L35.4531 23.6468L35.0981 25.0138L34.546 24.8689L34.9009 23.5018L34.2894 23.3413L33.8943 24.8629L33.3421 24.718L33.9033 22.5567L36.7514 23.3045Z" fill="#212428"/>
<path d="M32.0409 27.4106L33.1294 27.3618L33.3835 26.9013L32.5719 26.4483L32.8909 25.8703L35.4647 27.3067L34.8898 28.3484C34.7707 28.5643 34.631 28.7301 34.4709 28.8456C34.3128 28.9623 34.1447 29.025 33.9665 29.0335C33.7883 29.0421 33.6107 28.997 33.4339 28.8983C33.257 28.7996 33.1251 28.672 33.038 28.5154C32.9519 28.3621 32.9151 28.1892 32.9276 27.9968L31.6711 28.0807L32.0409 27.4106ZM33.892 27.185L33.6501 27.6233C33.5648 27.7778 33.5304 27.9151 33.5468 28.035C33.5642 28.1582 33.6329 28.2533 33.7529 28.3203C33.8729 28.3873 33.9884 28.395 34.0995 28.3434C34.2115 28.2952 34.3101 28.1938 34.3954 28.0392L34.6373 27.601L33.892 27.185Z" fill="#212428"/>
<path d="M32.3786 31.9035C32.2286 32.0609 32.0633 32.1749 31.8826 32.2455C31.7019 32.3162 31.5227 32.338 31.345 32.311C31.1674 32.2875 31.0083 32.2147 30.8678 32.0927L31.3375 31.5996C31.4447 31.6761 31.5569 31.7054 31.674 31.6875C31.7912 31.6695 31.9039 31.6037 32.0121 31.4901C32.1154 31.3817 32.1762 31.2776 32.1945 31.1779C32.2146 31.0799 32.1916 30.999 32.1255 30.9354C32.0734 30.8851 32.0124 30.8633 31.9428 30.8699C31.8731 30.8766 31.7877 30.9067 31.6867 30.9602C31.5857 31.0172 31.4471 31.1066 31.2709 31.2286C30.9973 31.4177 30.7557 31.5085 30.5461 31.5011C30.3365 31.497 30.1474 31.4137 29.9788 31.2512C29.8467 31.1239 29.7677 30.9741 29.7419 30.8016C29.7144 30.631 29.7371 30.455 29.8099 30.2736C29.8809 30.0905 29.993 29.9186 30.1463 29.7577C30.3129 29.5829 30.4932 29.4549 30.6873 29.3736C30.8781 29.2924 31.0682 29.2644 31.2578 29.2894C31.4457 29.3162 31.6177 29.3981 31.7739 29.5352L31.3066 30.0256C31.1907 29.9408 31.0615 29.9102 30.9189 29.9338C30.7765 29.9608 30.6411 30.0416 30.5128 30.1763C30.4195 30.2742 30.3646 30.3755 30.3481 30.4804C30.33 30.5869 30.3557 30.6737 30.4252 30.7407C30.4808 30.7943 30.5436 30.8212 30.6134 30.8214C30.6816 30.8234 30.7645 30.7994 30.8622 30.7493C30.9582 30.701 31.0817 30.6221 31.2327 30.5127C31.5061 30.3167 31.7525 30.2104 31.9718 30.1937C32.1911 30.177 32.3973 30.2616 32.5903 30.4476C32.7155 30.5682 32.7883 30.7105 32.8088 30.8744C32.8277 31.0401 32.799 31.212 32.7227 31.39C32.6482 31.5697 32.5335 31.7409 32.3786 31.9035Z" fill="#212428"/>
<path d="M27.1043 32.1826C27.3648 32.031 27.634 31.9525 27.9121 31.9473C28.1868 31.9412 28.4421 32.0052 28.6779 32.1393C28.9149 32.2755 29.107 32.4714 29.2542 32.7271C29.4014 32.9827 29.4741 33.2467 29.4724 33.5191C29.4719 33.7936 29.4006 34.0492 29.2586 34.2858C29.1157 34.5257 28.914 34.7215 28.6536 34.8731C28.3931 35.0248 28.1249 35.1026 27.849 35.1066C27.5722 35.1139 27.3152 35.0495 27.0782 34.9133C26.8424 34.7792 26.6509 34.5843 26.5037 34.3287C26.3565 34.0731 26.2832 33.808 26.2837 33.5335C26.2854 33.2611 26.3583 33.0059 26.5024 32.7682C26.6432 32.5295 26.8439 32.3343 27.1043 32.1826ZM27.4011 32.6981C27.249 32.7867 27.132 32.9024 27.0501 33.0452C26.9682 33.188 26.9291 33.3423 26.9327 33.5081C26.9354 33.6772 26.9821 33.8403 27.0726 33.9974C27.1643 34.1567 27.2817 34.2786 27.425 34.363C27.5661 34.4487 27.7187 34.4914 27.8827 34.491C28.0466 34.4907 28.2047 34.4462 28.3568 34.3577C28.5089 34.2691 28.6259 34.1534 28.7078 34.0105C28.7897 33.8677 28.8299 33.7128 28.8284 33.5458C28.8247 33.3801 28.7771 33.2176 28.6854 33.0583C28.5949 32.9012 28.4784 32.7787 28.3361 32.6909C28.1928 32.6064 28.0392 32.5644 27.8753 32.5647C27.7113 32.5651 27.5533 32.6095 27.4011 32.6981Z" fill="#212428"/>
<path d="M25.2358 36.3861L24.7014 36.5124L22.8656 35.1179L23.2786 36.8858L22.6387 37.037L21.9655 34.1553L22.5 34.0291L24.3357 35.4235L23.9227 33.6556L24.5627 33.5045L25.2358 36.3861Z" fill="#212428"/>
</svg>
