<svg width="48" height="48" viewBox="0 0 48 48" fill="none" xmlns="http://www.w3.org/2000/svg">
<circle cx="24" cy="24" r="24" fill="#EFEFEF"/>
<mask id="path-2-outside-1_128_1879" maskUnits="userSpaceOnUse" x="8.6571" y="8.6571" width="30" height="30" fill="black">
<rect fill="white" x="8.6571" y="8.6571" width="30" height="30"/>
<path fill-rule="evenodd" clip-rule="evenodd" d="M34.2451 30.7869C35.5415 28.8362 36.2968 26.4948 36.2968 23.977C36.2968 17.1729 30.781 11.6571 23.977 11.6571C17.1729 11.6571 11.6571 17.1729 11.6571 23.977C11.6571 30.781 17.1729 36.2968 23.977 36.2968C26.5443 36.2968 28.9282 35.5115 30.9016 34.168L32.2842 35.5506C33.2127 36.4791 34.718 36.4791 35.6465 35.5506C36.575 34.6222 36.575 33.1168 35.6465 32.1883L34.2451 30.7869Z"/>
</mask>
<path fill-rule="evenodd" clip-rule="evenodd" d="M34.2451 30.7869C35.5415 28.8362 36.2968 26.4948 36.2968 23.977C36.2968 17.1729 30.781 11.6571 23.977 11.6571C17.1729 11.6571 11.6571 17.1729 11.6571 23.977C11.6571 30.781 17.1729 36.2968 23.977 36.2968C26.5443 36.2968 28.9282 35.5115 30.9016 34.168L32.2842 35.5506C33.2127 36.4791 34.718 36.4791 35.6465 35.5506C36.575 34.6222 36.575 33.1168 35.6465 32.1883L34.2451 30.7869Z" fill="white"/>
<path d="M34.2451 30.7869L32.5318 29.6484L31.5998 31.0508L32.7905 32.2416L34.2451 30.7869ZM30.9016 34.168L32.3562 32.7134L31.1518 31.509L29.7439 32.4675L30.9016 34.168ZM32.2842 35.5506L33.7388 34.096V34.096L32.2842 35.5506ZM35.6465 32.1883L34.1919 33.6429H34.1919L35.6465 32.1883ZM34.2397 23.977C34.2397 26.0773 33.6109 28.0245 32.5318 29.6484L35.9585 31.9255C37.4721 29.6478 38.3539 26.9122 38.3539 23.977H34.2397ZM23.977 13.7142C29.6449 13.7142 34.2397 18.309 34.2397 23.977H38.3539C38.3539 16.0368 31.9172 9.59996 23.977 9.59996V13.7142ZM13.7142 23.977C13.7142 18.309 18.309 13.7142 23.977 13.7142V9.59996C16.0368 9.59996 9.59996 16.0368 9.59996 23.977H13.7142ZM23.977 34.2397C18.309 34.2397 13.7142 29.6449 13.7142 23.977H9.59996C9.59996 31.9172 16.0368 38.3539 23.977 38.3539V34.2397ZM29.7439 32.4675C28.101 33.586 26.1184 34.2397 23.977 34.2397V38.3539C26.9701 38.3539 29.7554 37.437 32.0593 35.8685L29.7439 32.4675ZM33.7388 34.096L32.3562 32.7134L29.447 35.6226L30.8296 37.0052L33.7388 34.096ZM34.1919 34.096C34.0668 34.2211 33.8639 34.2211 33.7388 34.096L30.8296 37.0052C32.5614 38.7371 35.3693 38.7371 37.1011 37.0052L34.1919 34.096ZM34.1919 33.6429C34.317 33.768 34.317 33.9709 34.1919 34.096L37.1011 37.0052C38.833 35.2734 38.833 32.4655 37.1011 30.7337L34.1919 33.6429ZM32.7905 32.2416L34.1919 33.6429L37.1011 30.7337L35.6998 29.3323L32.7905 32.2416Z" fill="white" mask="url(#path-2-outside-1_128_1879)"/>
<mask id="path-4-inside-2_128_1879" fill="white">
<path fill-rule="evenodd" clip-rule="evenodd" d="M34.2451 30.7869C35.5415 28.8362 36.2968 26.4948 36.2968 23.977C36.2968 17.1729 30.781 11.6571 23.977 11.6571C17.1729 11.6571 11.6571 17.1729 11.6571 23.977C11.6571 30.781 17.1729 36.2968 23.977 36.2968C26.5443 36.2968 28.9282 35.5115 30.9016 34.168L32.2842 35.5506C33.2127 36.4791 34.718 36.4791 35.6465 35.5506C36.575 34.6222 36.575 33.1168 35.6465 32.1883L34.2451 30.7869Z"/>
</mask>
<path fill-rule="evenodd" clip-rule="evenodd" d="M34.2451 30.7869C35.5415 28.8362 36.2968 26.4948 36.2968 23.977C36.2968 17.1729 30.781 11.6571 23.977 11.6571C17.1729 11.6571 11.6571 17.1729 11.6571 23.977C11.6571 30.781 17.1729 36.2968 23.977 36.2968C26.5443 36.2968 28.9282 35.5115 30.9016 34.168L32.2842 35.5506C33.2127 36.4791 34.718 36.4791 35.6465 35.5506C36.575 34.6222 36.575 33.1168 35.6465 32.1883L34.2451 30.7869Z" fill="white"/>
<path d="M34.2451 30.7869L33.3885 30.2177L32.9225 30.9189L33.5178 31.5142L34.2451 30.7869ZM30.9016 34.168L31.6289 33.4407L31.0267 32.8385L30.3228 33.3178L30.9016 34.168ZM32.2842 35.5506L33.0115 34.8233V34.8233L32.2842 35.5506ZM35.6465 32.1883L34.9192 32.9156H34.9192L35.6465 32.1883ZM35.2682 23.977C35.2682 26.286 34.5762 28.4303 33.3885 30.2177L35.1018 31.3562C36.5068 29.242 37.3254 26.7035 37.3254 23.977H35.2682ZM23.977 12.6857C30.213 12.6857 35.2682 17.741 35.2682 23.977H37.3254C37.3254 16.6048 31.3491 10.6285 23.977 10.6285V12.6857ZM12.6857 23.977C12.6857 17.741 17.741 12.6857 23.977 12.6857V10.6285C16.6048 10.6285 10.6285 16.6048 10.6285 23.977H12.6857ZM23.977 35.2682C17.741 35.2682 12.6857 30.213 12.6857 23.977H10.6285C10.6285 31.3491 16.6048 37.3254 23.977 37.3254V35.2682ZM30.3228 33.3178C28.5146 34.5488 26.3314 35.2682 23.977 35.2682V37.3254C26.7572 37.3254 29.3418 36.4743 31.4804 35.0183L30.3228 33.3178ZM33.0115 34.8233L31.6289 33.4407L30.1743 34.8953L31.5569 36.2779L33.0115 34.8233ZM34.9192 34.8233C34.3924 35.3501 33.5383 35.3501 33.0115 34.8233L31.5569 36.2779C32.8871 37.6081 35.0437 37.6081 36.3738 36.2779L34.9192 34.8233ZM34.9192 32.9156C35.446 33.4424 35.446 34.2965 34.9192 34.8233L36.3738 36.2779C37.704 34.9478 37.704 32.7912 36.3738 31.461L34.9192 32.9156ZM33.5178 31.5142L34.9192 32.9156L36.3738 31.461L34.9725 30.0596L33.5178 31.5142Z" fill="#E2E2E2" mask="url(#path-4-inside-2_128_1879)"/>
<path d="M22.2883 22.1126C21.9077 23.5329 21.1675 24.6897 20.304 25.4184C19.4388 26.1487 18.4929 26.4204 17.6506 26.1947C16.8083 25.969 16.125 25.2607 15.7408 24.1958C15.3574 23.1329 15.2947 21.761 15.6753 20.3407C16.0559 18.9204 16.7961 17.7637 17.6596 17.0349C18.5248 16.3047 19.4706 16.0329 20.313 16.2586C21.1553 16.4843 21.8385 17.1926 22.2227 18.2576C22.6061 19.3205 22.6688 20.6924 22.2883 22.1126Z" fill="white" stroke="#E2E2E2" stroke-width="1.02857"/>
<ellipse cx="17.4335" cy="21.0719" rx="2.2708" ry="3.26286" transform="rotate(15 17.4335 21.0719)" fill="#E2E2E2"/>
<path d="M29.4882 23.1595C29.1077 24.5798 28.3674 25.7365 27.5039 26.4653C26.6387 27.1955 25.6929 27.4673 24.8505 27.2416C24.0082 27.0159 23.325 26.3076 22.9408 25.2426C22.5574 24.1797 22.4947 22.8078 22.8752 21.3876C23.2558 19.9673 23.996 18.8106 24.8595 18.0818C25.7247 17.3516 26.6706 17.0798 27.5129 17.3055C28.3552 17.5312 29.0385 18.2395 29.4227 19.3045C29.8061 20.3674 29.8688 21.7393 29.4882 23.1595Z" fill="white" stroke="#E2E2E2" stroke-width="1.02857"/>
<ellipse cx="24.6335" cy="22.1188" rx="2.2708" ry="3.26286" transform="rotate(15 24.6335 22.1188)" fill="#E2E2E2"/>
<circle cx="20.9143" cy="28.6469" r="1.02857" fill="#E2E2E2"/>
<path d="M22.2883 22.1126C21.9077 23.5329 21.1675 24.6897 20.304 25.4184C19.4388 26.1487 18.4929 26.4204 17.6506 26.1947C16.8083 25.969 16.125 25.2607 15.7408 24.1958C15.3574 23.1329 15.2947 21.761 15.6753 20.3407C16.0559 18.9204 16.7961 17.7637 17.6596 17.0349C18.5248 16.3047 19.4706 16.0329 20.313 16.2586C21.1553 16.4843 21.8385 17.1926 22.2227 18.2576C22.6061 19.3205 22.6688 20.6924 22.2883 22.1126Z" fill="white" stroke="#E2E2E2" stroke-width="1.02857"/>
<ellipse cx="17.4335" cy="21.0719" rx="2.2708" ry="3.26286" transform="rotate(15 17.4335 21.0719)" fill="#E2E2E2"/>
</svg>
