<svg width="1200" height="109" viewBox="0 0 1200 109" fill="none" xmlns="http://www.w3.org/2000/svg">
<g clip-path="url(#clip0_128_1772)">
<rect y="10" width="1200" height="80" rx="8" fill="#6E75EA"/>
<rect y="10" width="1200" height="80" fill="url(#paint0_linear_128_1772)"/>
<circle cx="162" cy="83.0001" r="39" transform="rotate(45 162 83.0001)" fill="#FDF301" stroke="#212428" stroke-width="2"/>
<circle cx="162" cy="83" r="23.1975" transform="rotate(45 162 83)" fill="#FDF301" stroke="#212428" stroke-width="2"/>
<path d="M162.081 82.2924C164.525 83.7031 167.099 84.268 169.258 84.0853C171.422 83.9022 173.071 82.9883 173.906 81.5424C174.74 80.0965 174.707 78.2114 173.784 76.246C172.863 74.2845 171.087 72.3382 168.643 70.9274C166.2 69.5167 163.626 68.9518 161.467 69.1345C159.303 69.3176 157.654 70.2315 156.819 71.6774C155.984 73.1233 156.017 75.0084 156.941 76.9738C157.862 78.9353 159.638 80.8816 162.081 82.2924Z" fill="white" stroke="#212428" stroke-width="2"/>
<ellipse cx="4.36093" cy="6.26613" rx="4.36093" ry="6.26613" transform="matrix(-0.5 0.866025 0.866025 0.5 164.009 67.3876)" fill="#212428"/>
<path d="M153.726 93.4912C156.169 94.902 158.743 95.4669 160.902 95.2842C163.066 95.1011 164.715 94.1871 165.55 92.7413C166.385 91.2954 166.352 89.4103 165.428 87.4449C164.507 85.4834 162.731 83.5371 160.287 82.1263C157.844 80.7155 155.27 80.1506 153.111 80.3334C150.947 80.5164 149.298 81.4304 148.463 82.8762C147.628 84.3221 147.661 86.2073 148.585 88.1727C149.506 90.1342 151.282 92.0805 153.726 93.4912Z" fill="white" stroke="#212428" stroke-width="2"/>
<ellipse cx="4.36093" cy="6.26613" rx="4.36093" ry="6.26613" transform="matrix(-0.5 0.866025 0.866025 0.5 155.653 78.5865)" fill="#212428"/>
<circle cx="1.97531" cy="1.97531" r="1.97531" transform="matrix(-0.707107 0.707107 0.707107 0.707107 172.814 86.517)" fill="#212428"/>
<path d="M162.081 82.2924C164.525 83.7031 167.099 84.268 169.258 84.0853C171.422 83.9022 173.071 82.9883 173.906 81.5424C174.74 80.0965 174.707 78.2114 173.784 76.246C172.863 74.2845 171.087 72.3382 168.643 70.9274C166.2 69.5167 163.626 68.9518 161.467 69.1345C159.303 69.3176 157.654 70.2315 156.819 71.6774C155.984 73.1233 156.017 75.0084 156.941 76.9738C157.862 78.9353 159.638 80.8816 162.081 82.2924Z" fill="white" stroke="#212428" stroke-width="2"/>
<ellipse cx="4.36093" cy="6.26613" rx="4.36093" ry="6.26613" transform="matrix(-0.5 0.866025 0.866025 0.5 164.009 67.3876)" fill="#212428"/>
<path d="M141.798 63.0564L139.649 62.6372L138.94 63.4086L140.317 64.6683L139.427 65.6365L135.06 61.6417L136.664 59.8968C136.996 59.5351 137.345 59.2802 137.712 59.1321C138.074 58.9807 138.432 58.9388 138.784 59.0064C139.136 59.0739 139.462 59.245 139.762 59.5194C140.062 59.7939 140.261 60.1033 140.359 60.4474C140.457 60.7848 140.449 61.1367 140.336 61.5032L142.83 61.9339L141.798 63.0564ZM138.077 62.6194L138.752 61.8853C138.99 61.6264 139.12 61.377 139.143 61.1371C139.166 60.8904 139.076 60.6739 138.872 60.4877C138.669 60.3014 138.447 60.232 138.206 60.2793C137.965 60.3199 137.725 60.4696 137.487 60.7285L136.812 61.4627L138.077 62.6194Z" fill="#212428"/>
<path d="M141.342 55.5849L145.019 53.2007L145.647 54.1598L143.074 55.8279L143.734 56.8356L146.095 55.3052L146.723 56.2643L144.362 57.7947L145.058 58.857L147.685 57.1535L148.313 58.1126L144.581 60.5321L141.342 55.5849Z" fill="#212428"/>
<path d="M156.264 49.1238L156.257 55.2593L154.974 55.6204L152.933 52.3492L152.938 56.1935L151.656 56.5547L148.386 51.3416L149.745 50.9589L151.788 54.395L151.697 50.4093L153.015 50.0384L155.047 53.4626L154.967 49.4888L156.264 49.1238Z" fill="#212428"/>
<path d="M163.926 53.7269L161.635 53.6406L161.184 54.7671L159.821 54.7158L162.306 48.9108L163.677 48.9625L165.773 54.94L164.301 54.8846L163.926 53.7269ZM163.557 52.5695L162.886 50.4887L162.078 52.5138L163.557 52.5695Z" fill="#212428"/>
<path d="M171.241 56.4149L170.69 54.3004L169.684 53.9892L169.139 55.7645L167.876 55.3738L169.603 49.7439L171.879 50.448C172.351 50.594 172.733 50.8005 173.026 51.0676C173.32 51.33 173.513 51.6342 173.604 51.9802C173.695 52.3261 173.682 52.6925 173.563 53.0793C173.444 53.4662 173.25 53.7768 172.981 54.0111C172.718 54.2422 172.396 54.3846 172.015 54.4381L172.705 56.8678L171.241 56.4149ZM170.025 52.877L170.982 53.1732C171.32 53.2777 171.602 53.2895 171.83 53.2086C172.063 53.1245 172.22 52.9512 172.301 52.6887C172.381 52.4262 172.348 52.1965 172.2 51.9997C172.059 51.7997 171.82 51.6475 171.482 51.543L170.525 51.2468L170.025 52.877Z" fill="#212428"/>
<path d="M177.907 52.8387L179.842 54.074C180.385 54.4206 180.791 54.8284 181.06 55.2974C181.332 55.7623 181.456 56.2526 181.431 56.768C181.408 57.2795 181.242 57.7786 180.93 58.2655C180.619 58.7525 180.235 59.1155 179.777 59.3548C179.322 59.59 178.827 59.682 178.29 59.631C177.754 59.5799 177.214 59.3811 176.671 59.0345L174.737 57.7992L177.907 52.8387ZM177.316 58.0663C177.798 58.3738 178.258 58.485 178.698 58.3999C179.14 58.3108 179.513 58.0288 179.816 57.5541C180.12 57.0793 180.219 56.6228 180.114 56.1844C180.009 55.7461 179.716 55.3732 179.234 55.0656L178.395 54.5301L176.477 57.5307L177.316 58.0663Z" fill="#212428"/>
<path d="M187.295 60.1004C187.586 60.4237 187.79 60.7712 187.905 61.1429C188.019 61.5145 188.037 61.8757 187.958 62.2264C187.885 62.5775 187.717 62.8841 187.454 63.1462L186.54 62.133C186.707 61.9305 186.782 61.711 186.763 61.4744C186.744 61.2378 186.629 61.0027 186.418 60.7691C186.217 60.5464 186.019 60.4091 185.823 60.3574C185.63 60.3024 185.466 60.336 185.33 60.4583C185.222 60.5548 185.17 60.6731 185.173 60.8133C185.176 60.9534 185.224 61.1285 185.316 61.3384C185.415 61.5487 185.573 61.8391 185.791 62.2096C186.128 62.7847 186.274 63.281 186.229 63.6984C186.191 64.1163 185.998 64.4812 185.65 64.7933C185.377 65.0377 185.067 65.1726 184.72 65.1979C184.376 65.2268 184.029 65.1547 183.678 64.9818C183.324 64.812 182.997 64.5619 182.699 64.2313C182.375 63.8721 182.145 63.4924 182.012 63.0924C181.877 62.6992 181.849 62.3152 181.926 61.9405C182.006 61.5694 182.194 61.2383 182.49 60.9473L183.399 61.955C183.214 62.1736 183.134 62.427 183.161 62.7152C183.194 63.0039 183.336 63.2865 183.585 63.5631C183.767 63.7643 183.961 63.8894 184.167 63.9383C184.377 63.9908 184.554 63.9527 184.697 63.8241C184.812 63.7211 184.875 63.6 184.885 63.4606C184.899 63.3247 184.863 63.1555 184.777 62.9527C184.695 62.7536 184.555 62.4949 184.359 62.1769C184.008 61.601 183.832 61.0928 183.83 60.6523C183.828 60.2117 184.027 59.8129 184.425 59.4559C184.683 59.2243 184.977 59.1005 185.306 59.0845C185.639 59.0721 185.978 59.1555 186.321 59.3349C186.669 59.5111 186.993 59.7662 187.295 60.1004Z" fill="#212428"/>
<path d="M193.229 69.401L194.738 73.464L193.649 73.8612L192.6 71.0347L191.342 71.494L192.275 74.0079L191.2 74.4001L190.267 71.8862L188.145 72.6607L187.686 71.4242L193.229 69.401Z" fill="#212428"/>
<path d="M189.888 80.5496C189.836 79.9488 189.924 79.3947 190.152 78.8875C190.376 78.3854 190.71 77.9786 191.154 77.6669C191.602 77.3548 192.121 77.1751 192.708 77.1277C193.296 77.0803 193.836 77.1747 194.327 77.411C194.822 77.6469 195.223 77.9945 195.53 78.4538C195.841 78.9176 196.023 79.4499 196.074 80.0507C196.126 80.6515 196.038 81.2032 195.809 81.7056C195.586 82.2125 195.25 82.6219 194.801 82.934C194.357 83.2457 193.841 83.4252 193.254 83.4726C192.666 83.52 192.124 83.4258 191.628 83.1899C191.137 82.9536 190.738 82.6034 190.432 82.1393C190.121 81.6804 189.939 81.1505 189.888 80.5496ZM191.073 80.454C191.103 80.8049 191.212 81.1156 191.4 81.386C191.589 81.6563 191.834 81.8592 192.137 81.9945C192.445 82.1342 192.779 82.1895 193.141 82.1604C193.507 82.1309 193.828 82.0227 194.103 81.836C194.378 81.654 194.586 81.4147 194.725 81.1178C194.865 80.821 194.919 80.4972 194.889 80.1463C194.859 79.7954 194.75 79.4848 194.562 79.2144C194.373 78.944 194.128 78.7387 193.825 78.5986C193.522 78.4633 193.187 78.4104 192.821 78.4399C192.46 78.4691 192.139 78.5748 191.859 78.7571C191.584 78.9439 191.376 79.1857 191.237 79.4825C191.097 79.7793 191.043 80.1031 191.073 80.454Z" fill="#212428"/>
<path d="M189.385 89.7246L191.437 88.9763L191.642 87.9486L189.814 87.577L190.071 86.2871L195.87 87.4654L195.405 89.7902C195.309 90.2722 195.143 90.6711 194.907 90.987C194.676 91.3039 194.393 91.5242 194.057 91.6477C193.722 91.7713 193.355 91.7926 192.956 91.7116C192.558 91.6306 192.228 91.4676 191.966 91.2226C191.707 90.9833 191.532 90.6772 191.438 90.3042L189.086 91.2201L189.385 89.7246ZM192.788 88.1814L192.592 89.1595C192.523 89.5044 192.541 89.7859 192.646 90.0038C192.754 90.2274 192.944 90.3667 193.214 90.4216C193.484 90.4766 193.71 90.4216 193.891 90.2568C194.076 90.0977 194.202 89.8457 194.271 89.5007L194.467 88.5226L192.788 88.1814Z" fill="#212428"/>
<path d="M185.656 100.395L186.94 98.5075L186.222 97.5222L186.986 96.3995L190.599 101.613L189.831 102.742L183.65 101.302L184.475 100.09L185.656 100.395ZM186.833 100.705L188.954 101.255L187.662 99.4869L186.833 100.705Z" fill="#212428"/>
<path d="M178.77 108.413L178.945 107.2L178.226 106.084L179.337 105.377L182.535 110.35L181.425 111.057L179.918 108.714L179.436 112.323L178.075 113.19L178.58 109.695L174.773 108.282L176.158 107.4L178.77 108.413Z" fill="#212428"/>
<path d="M173.503 115.084L171.402 109.563L172.636 109.101L174.737 114.622L173.503 115.084Z" fill="#212428"/>
<path d="M169.675 116.304L168.585 116.461L165.138 113.376L165.676 116.955L164.37 117.144L163.494 111.31L164.584 111.152L168.031 114.238L167.493 110.658L168.799 110.469L169.675 116.304Z" fill="#212428"/>
<path d="M160.083 117.101L157.811 116.786C157.174 116.698 156.634 116.497 156.193 116.183C155.751 115.874 155.433 115.479 155.239 115C155.044 114.525 154.985 114.002 155.062 113.428C155.139 112.855 155.334 112.364 155.648 111.955C155.961 111.551 156.371 111.26 156.879 111.082C157.386 110.904 157.958 110.859 158.596 110.947L160.868 111.261L160.083 117.101ZM158.419 112.097C157.854 112.019 157.39 112.111 157.027 112.372C156.665 112.638 156.446 113.051 156.371 113.609C156.295 114.168 156.398 114.625 156.677 114.98C156.956 115.335 157.379 115.552 157.945 115.63L158.93 115.766L159.404 112.234L158.419 112.097Z" fill="#212428"/>
<path d="M146.481 113.386L144.524 112.229C144.086 111.97 143.756 111.672 143.534 111.333C143.308 110.993 143.194 110.634 143.191 110.258C143.189 109.882 143.298 109.507 143.518 109.134C143.741 108.757 144.02 108.476 144.353 108.293C144.684 108.114 145.053 108.041 145.461 108.075C145.864 108.106 146.285 108.252 146.722 108.51L147.542 108.994L148.339 107.645L149.477 108.318L146.481 113.386ZM146.181 109.541C145.86 109.351 145.567 109.279 145.304 109.325C145.037 109.368 144.821 109.529 144.657 109.806C144.492 110.084 144.457 110.349 144.55 110.6C144.64 110.848 144.845 111.067 145.166 111.257L145.935 111.712L146.95 109.996L146.181 109.541Z" fill="#212428"/>
<path d="M139.525 108.71L136.389 105.622L137.192 104.811L139.386 106.971L140.23 106.119L138.218 104.137L139.021 103.326L141.034 105.307L141.923 104.409L139.683 102.203L140.486 101.391L143.668 104.524L139.525 108.71Z" fill="#212428"/>
<path d="M137.124 96.4448L136.12 98.379L136.663 99.2796L138.259 98.3268L138.941 99.4573L133.88 102.479L132.65 100.442C132.395 100.019 132.248 99.6116 132.208 99.2186C132.164 98.8282 132.224 98.4743 132.387 98.1571C132.55 97.8399 132.806 97.5775 133.154 97.3699C133.501 97.1622 133.855 97.0613 134.213 97.0671C134.564 97.0712 134.901 97.1803 135.221 97.3944L136.333 95.1342L137.124 96.4448ZM135.663 99.8766L135.146 99.0194C134.963 98.7171 134.76 98.5202 134.536 98.4287C134.305 98.3356 134.072 98.3594 133.836 98.5003C133.6 98.6412 133.471 98.8336 133.449 99.0775C133.421 99.3198 133.498 99.5921 133.68 99.8944L134.197 100.752L135.663 99.8766Z" fill="#212428"/>
<path d="M129.004 92.5368C128.881 92.1197 128.849 91.7194 128.907 91.3357C128.966 90.952 129.107 90.6198 129.332 90.339C129.55 90.055 129.835 89.8523 130.187 89.7308L130.571 91.0375C130.332 91.1467 130.169 91.3118 130.083 91.5326C129.997 91.7534 129.998 92.0143 130.086 92.3155C130.171 92.6028 130.29 92.8122 130.445 92.9436C130.594 93.0764 130.757 93.1174 130.934 93.0666C131.073 93.0265 131.172 92.9428 131.23 92.8155C131.288 92.6882 131.321 92.5102 131.33 92.2817C131.332 92.0498 131.316 91.7203 131.281 91.2931C131.227 90.6302 131.311 90.1209 131.533 89.7653C131.75 89.4064 132.083 89.1621 132.533 89.0325C132.886 88.931 133.225 88.9441 133.549 89.0718C133.872 89.1949 134.154 89.4101 134.396 89.7176C134.642 90.0237 134.827 90.3899 134.953 90.8162C135.089 91.2795 135.13 91.7199 135.077 92.1374C135.027 92.5489 134.885 92.9063 134.652 93.2096C134.418 93.5082 134.104 93.7243 133.711 93.8577L133.328 92.558C133.591 92.4421 133.774 92.2489 133.875 91.9784C133.971 91.7046 133.966 91.3892 133.861 91.0325C133.785 90.773 133.664 90.5765 133.499 90.4431C133.333 90.3051 133.157 90.2628 132.971 90.3162C132.823 90.359 132.713 90.4407 132.643 90.5615C132.572 90.6776 132.53 90.8453 132.519 91.0646C132.507 91.2792 132.52 91.572 132.559 91.9428C132.625 92.6124 132.562 93.1455 132.372 93.542C132.182 93.9386 131.829 94.2111 131.314 94.3594C130.98 94.4556 130.661 94.4395 130.356 94.3111C130.05 94.178 129.781 93.9564 129.549 93.6463C129.312 93.3376 129.131 92.9677 129.004 92.5368Z" fill="#212428"/>
<path d="M133.795 83.1224C133.797 83.7252 133.663 84.27 133.394 84.7567C133.13 85.2387 132.764 85.6168 132.296 85.8912C131.823 86.1655 131.292 86.3023 130.702 86.3017C130.112 86.301 129.582 86.163 129.112 85.8875C128.637 85.6121 128.265 85.2331 127.998 84.7506C127.725 84.2632 127.588 83.7181 127.585 83.1153C127.583 82.5125 127.716 81.9701 127.985 81.4882C128.25 81.0014 128.618 80.6209 129.091 80.3465C129.559 80.0722 130.088 79.9354 130.678 79.936C131.268 79.9367 131.801 80.0748 132.276 80.3502C132.746 80.6256 133.115 81.007 133.382 81.4944C133.655 81.9769 133.792 82.5196 133.795 83.1224ZM132.605 83.121C132.604 82.769 132.52 82.4506 132.355 82.1659C132.189 81.8812 131.961 81.6591 131.67 81.4996C131.375 81.3353 131.046 81.253 130.683 81.2526C130.316 81.2521 129.987 81.3338 129.697 81.4974C129.408 81.6562 129.181 81.8778 129.018 82.1621C128.855 82.4464 128.774 82.7646 128.775 83.1167C128.776 83.4687 128.86 83.7871 129.025 84.0718C129.191 84.3565 129.419 84.581 129.709 84.7453C130 84.9048 130.329 84.9847 130.697 84.9851C131.06 84.9856 131.388 84.9064 131.683 84.7476C131.972 84.5839 132.199 84.3599 132.362 84.0756C132.525 83.7913 132.606 83.4731 132.605 83.121Z" fill="#212428"/>
<path d="M128.382 75.6825L128.698 74.6306L132.949 72.8455L129.474 71.7929L129.852 70.5333L135.517 72.249L135.201 73.301L130.95 75.0861L134.425 76.1387L134.047 77.3982L128.382 75.6825Z" fill="#212428"/>
<circle cx="82" cy="13" r="14" fill="#FDF301" stroke="#212428" stroke-width="2"/>
<path d="M81.7397 12.7695C81.3533 14.2115 80.6064 15.3659 79.7609 16.0794C78.9121 16.7958 78.0477 17.0121 77.3282 16.8193C76.6088 16.6265 75.9684 16.007 75.5915 14.9622C75.216 13.9215 75.1463 12.5484 75.5327 11.1064C75.9191 9.66436 76.6661 8.51002 77.5115 7.79645C78.3603 7.08009 79.2247 6.86379 79.9442 7.05657C80.6637 7.24936 81.3041 7.86886 81.6809 8.91364C82.0564 9.95435 82.1261 11.3275 81.7397 12.7695Z" fill="white" stroke="#212428" stroke-width="2"/>
<ellipse cx="76.9797" cy="11.7725" rx="2.42974" ry="3.49124" transform="rotate(15 76.9797 11.7725)" fill="#212428"/>
<path d="M89.4436 13.89C89.0572 15.332 88.3102 16.4863 87.4647 17.1999C86.616 17.9163 85.7516 18.1326 85.0321 17.9398C84.3126 17.747 83.6722 17.1275 83.2953 16.0827C82.9199 15.042 82.8502 13.6688 83.2366 12.2268C83.6229 10.7848 84.3699 9.63051 85.2154 8.91693C86.0642 8.20057 86.9285 7.98427 87.648 8.17706C88.3675 8.36984 89.0079 8.98935 89.3848 10.0341C89.7602 11.0748 89.83 12.448 89.4436 13.89Z" fill="white" stroke="#212428" stroke-width="2"/>
<ellipse cx="84.6833" cy="12.8924" rx="2.42974" ry="3.49124" transform="rotate(15 84.6833 12.8924)" fill="#212428"/>
<circle cx="80.7041" cy="19.8778" r="1.10056" fill="#212428"/>
<path d="M81.7397 12.7695C81.3533 14.2115 80.6064 15.3659 79.7609 16.0794C78.9121 16.7958 78.0477 17.0121 77.3282 16.8193C76.6088 16.6265 75.9684 16.007 75.5915 14.9622C75.216 13.9215 75.1463 12.5484 75.5327 11.1064C75.9191 9.66436 76.6661 8.51002 77.5115 7.79645C78.3603 7.08009 79.2247 6.86379 79.9442 7.05657C80.6637 7.24936 81.3041 7.86886 81.6809 8.91364C82.0564 9.95435 82.1261 11.3275 81.7397 12.7695Z" fill="white" stroke="#212428" stroke-width="2"/>
<ellipse cx="76.9797" cy="11.7725" rx="2.42974" ry="3.49124" transform="rotate(15 76.9797 11.7725)" fill="#212428"/>
<g opacity="0.3">
<circle cx="21.5" cy="21.5" r="20.5" transform="matrix(-0.965926 0.258819 0.258819 0.965926 55.7029 64.168)" fill="#FDF301" stroke="#212428" stroke-width="2"/>
<path d="M40.3997 90.301C41.5084 92.2212 43.0335 93.6086 44.5583 94.325C46.0871 95.0432 47.52 95.0545 48.6017 94.43C49.6834 93.8054 50.3901 92.5588 50.5325 90.8758C50.6745 89.1971 50.2355 87.1825 49.1269 85.2624C48.0183 83.3422 46.4931 81.9547 44.9683 81.2384C43.4396 80.5202 42.0066 80.5089 40.9249 81.1334C39.8433 81.7579 39.1366 83.0045 38.9942 84.6875C38.8521 86.3662 39.2911 88.3808 40.3997 90.301Z" fill="white" stroke="#212428" stroke-width="2"/>
<ellipse cx="3.48262" cy="5.00411" rx="3.48262" ry="5.00411" transform="matrix(-0.866025 0.5 0.5 0.866025 47.5095 80.863)" fill="#212428"/>
<path d="M30.1495 94.7102C31.2581 96.6304 32.7833 98.0178 34.3081 98.7341C35.8368 99.4523 37.2698 99.4636 38.3515 98.8391C39.4331 98.2146 40.1398 96.968 40.2822 95.285C40.4243 93.6063 39.9853 91.5917 38.8767 89.6715C37.768 87.7513 36.2429 86.3639 34.7181 85.6475C33.1893 84.9294 31.7564 84.9181 30.6747 85.5426C29.593 86.1671 28.8863 87.4137 28.7439 89.0967C28.6019 90.7754 29.0409 92.79 30.1495 94.7102Z" fill="white" stroke="#212428" stroke-width="2"/>
<ellipse cx="3.48262" cy="5.00411" rx="3.48262" ry="5.00411" transform="matrix(-0.866025 0.5 0.5 0.866025 37.2593 85.2714)" fill="#212428"/>
<path d="M40.3997 90.301C41.5084 92.2212 43.0335 93.6086 44.5583 94.325C46.0871 95.0432 47.52 95.0545 48.6017 94.43C49.6834 93.8054 50.3901 92.5588 50.5325 90.8758C50.6745 89.1971 50.2355 87.1825 49.1269 85.2624C48.0183 83.3422 46.4931 81.9547 44.9683 81.2384C43.4396 80.5202 42.0066 80.5089 40.9249 81.1334C39.8433 81.7579 39.1366 83.0045 38.9942 84.6875C38.8521 86.3662 39.2911 88.3808 40.3997 90.301Z" fill="white" stroke="#212428" stroke-width="2"/>
<ellipse cx="3.48262" cy="5.00411" rx="3.48262" ry="5.00411" transform="matrix(-0.866025 0.5 0.5 0.866025 47.5095 80.863)" fill="#212428"/>
</g>
<circle cx="1141" cy="89" r="14" transform="rotate(-150 1141 89)" fill="#FDF301" stroke="#212428" stroke-width="2"/>
<path d="M1141.11 89.3297C1142.17 88.2741 1143.39 87.6479 1144.48 87.4527C1145.57 87.2567 1146.43 87.5015 1146.96 88.0282C1147.48 88.5549 1147.73 89.4117 1147.53 90.5049C1147.34 91.5939 1146.71 92.818 1145.65 93.8736C1144.6 94.9292 1143.37 95.5554 1142.29 95.7506C1141.19 95.9466 1140.34 95.7018 1139.81 95.1751C1139.28 94.6484 1139.04 93.7916 1139.23 92.6984C1139.43 91.6094 1140.05 90.3853 1141.11 89.3297Z" fill="white" stroke="#212428" stroke-width="2"/>
<ellipse cx="1144.73" cy="92.5731" rx="2.42974" ry="3.49124" transform="rotate(-135 1144.73 92.5731)" fill="#212428"/>
<path d="M1135 84.5075C1136.05 83.4518 1137.28 82.8256 1138.37 82.6304C1139.46 82.4344 1140.32 82.6793 1140.84 83.206C1141.37 83.7327 1141.62 84.5894 1141.42 85.6826C1141.22 86.7716 1140.6 87.9957 1139.54 89.0513C1138.49 90.1069 1137.26 90.7331 1136.17 90.9284C1135.08 91.1244 1134.22 90.8795 1133.7 90.3528C1133.17 89.8261 1132.93 88.9694 1133.12 87.8761C1133.32 86.7871 1133.94 85.5631 1135 84.5075Z" fill="white" stroke="#212428" stroke-width="2"/>
<ellipse cx="1138.62" cy="87.7515" rx="2.42974" ry="3.49124" transform="rotate(-135 1138.62 87.7515)" fill="#212428"/>
<circle cx="1145.56" cy="83.6917" r="1.10056" transform="rotate(-150 1145.56 83.6917)" fill="#212428"/>
<path d="M1141.11 89.3297C1142.17 88.2741 1143.39 87.6479 1144.48 87.4527C1145.57 87.2567 1146.43 87.5015 1146.96 88.0282C1147.48 88.5549 1147.73 89.4117 1147.53 90.5049C1147.34 91.5939 1146.71 92.818 1145.65 93.8736C1144.6 94.9292 1143.37 95.5554 1142.29 95.7506C1141.19 95.9466 1140.34 95.7018 1139.81 95.1751C1139.28 94.6484 1139.04 93.7916 1139.23 92.6984C1139.43 91.6094 1140.05 90.3853 1141.11 89.3297Z" fill="white" stroke="#212428" stroke-width="2"/>
<ellipse cx="1144.73" cy="92.5731" rx="2.42974" ry="3.49124" transform="rotate(-135 1144.73 92.5731)" fill="#212428"/>
<g opacity="0.6">
<circle cx="1190.43" cy="16.4305" r="25.669" transform="rotate(-150 1190.43 16.4305)" fill="#FDF301" stroke="#212428" stroke-width="2"/>
<circle cx="1190.43" cy="16.4305" r="15.1331" transform="rotate(-150 1190.43 16.4305)" fill="#FDF301" stroke="#212428" stroke-width="2"/>
<path d="M1191.09 17.0415C1192.38 15.7535 1193.88 14.9824 1195.22 14.7409C1196.58 14.4986 1197.67 14.7956 1198.36 15.4841C1199.05 16.1726 1199.35 17.27 1199.1 18.6216C1198.86 19.9689 1198.09 21.469 1196.8 22.757C1195.52 24.0451 1194.02 24.8162 1192.67 25.0577C1191.32 25.3 1190.22 25.0029 1189.53 24.3145C1188.84 23.626 1188.55 22.5286 1188.79 21.177C1189.03 19.8297 1189.8 18.3296 1191.09 17.0415Z" fill="white" stroke="#212428" stroke-width="2"/>
<ellipse cx="1195.56" cy="21.0621" rx="2.90754" ry="4.17779" transform="rotate(-135 1195.56 21.0621)" fill="#212428"/>
<path d="M1183.77 11.2713C1185.06 9.98321 1186.56 9.21214 1187.91 8.9706C1189.26 8.72829 1190.36 9.02538 1191.05 9.71386C1191.74 10.4023 1192.03 11.4997 1191.79 12.8513C1191.55 14.1986 1190.78 15.6987 1189.49 16.9868C1188.2 18.2748 1186.7 19.0459 1185.35 19.2875C1184 19.5298 1182.91 19.2327 1182.22 18.5442C1181.53 17.8557 1181.23 16.7583 1181.47 15.4067C1181.72 14.0594 1182.49 12.5593 1183.77 11.2713Z" fill="white" stroke="#212428" stroke-width="2"/>
<ellipse cx="1188.25" cy="15.2917" rx="2.90754" ry="4.17779" transform="rotate(-135 1188.25 15.2917)" fill="#212428"/>
<circle cx="1196.55" cy="10.4341" r="1.31699" transform="rotate(-150 1196.55 10.4341)" fill="#212428"/>
<path d="M1191.09 17.0415C1192.38 15.7535 1193.88 14.9824 1195.22 14.7409C1196.58 14.4986 1197.67 14.7956 1198.36 15.4841C1199.05 16.1726 1199.35 17.27 1199.1 18.6216C1198.86 19.9689 1198.09 21.469 1196.8 22.757C1195.52 24.0451 1194.02 24.8162 1192.67 25.0577C1191.32 25.3 1190.22 25.0029 1189.53 24.3145C1188.84 23.626 1188.55 22.5286 1188.79 21.177C1189.03 19.8297 1189.8 18.3296 1191.09 17.0415Z" fill="white" stroke="#212428" stroke-width="2"/>
<ellipse cx="1195.56" cy="21.0621" rx="2.90754" ry="4.17779" transform="rotate(-135 1195.56 21.0621)" fill="#212428"/>
<path d="M1203.73 2.96151L1204.01 1.52828L1203.49 1.05559L1202.65 1.97377L1202.01 1.38047L1204.67 -1.53123L1205.83 -0.461999C1206.08 -0.240325 1206.25 -0.00739575 1206.34 0.236784C1206.44 0.478586 1206.47 0.71689 1206.43 0.951699C1206.38 1.18651 1206.27 1.40394 1206.09 1.60401C1205.9 1.80408 1205.7 1.93676 1205.47 2.00206C1205.24 2.06714 1205.01 2.06194 1204.76 1.98644L1204.48 3.64935L1203.73 2.96151ZM1204.02 0.480402L1204.51 0.930263C1204.68 1.08891 1204.85 1.17598 1205.01 1.19145C1205.17 1.20672 1205.32 1.14648 1205.44 1.01072C1205.56 0.874954 1205.61 0.726794 1205.58 0.566237C1205.55 0.405474 1205.45 0.245768 1205.28 0.0871196L1204.79 -0.362741L1204.02 0.480402Z" fill="#212428"/>
<path d="M1208.71 2.65733L1210.3 5.10906L1209.66 5.52776L1208.55 3.81236L1207.88 4.25226L1208.9 5.82606L1208.26 6.24476L1207.24 4.67096L1206.53 5.13471L1207.66 6.88653L1207.02 7.30523L1205.41 4.81709L1208.71 2.65733Z" fill="#212428"/>
<path d="M1213.02 12.6062L1208.93 12.6016L1208.69 11.7463L1210.87 10.3855L1208.3 10.3889L1208.06 9.53358L1211.54 7.35335L1211.79 8.25982L1209.5 9.62204L1212.16 9.56141L1212.41 10.44L1210.12 11.7949L1212.77 11.7416L1213.02 12.6062Z" fill="#212428"/>
<path d="M1209.95 17.7144L1210.01 16.1869L1209.25 15.8862L1209.29 14.9775L1213.16 16.6347L1213.12 17.5483L1209.14 18.946L1209.18 17.9647L1209.95 17.7144ZM1210.72 17.4688L1212.11 17.021L1210.76 16.4827L1210.72 17.4688Z" fill="#212428"/>
<path d="M1208.16 22.5917L1209.57 22.224L1209.77 21.5533L1208.59 21.1902L1208.85 20.3484L1212.6 21.4998L1212.13 23.0169C1212.04 23.3315 1211.9 23.5864 1211.72 23.7816C1211.55 23.9777 1211.34 24.1063 1211.11 24.1672C1210.88 24.2281 1210.64 24.219 1210.38 24.1399C1210.12 24.0608 1209.91 23.9315 1209.76 23.7519C1209.6 23.5763 1209.51 23.3615 1209.47 23.1074L1207.85 23.5677L1208.16 22.5917ZM1210.51 21.7808L1210.32 22.4191C1210.25 22.6442 1210.24 22.8325 1210.29 22.9841C1210.35 23.1398 1210.46 23.2444 1210.64 23.2981C1210.82 23.3518 1210.97 23.3295 1211.1 23.2314C1211.23 23.1372 1211.33 22.9776 1211.4 22.7525L1211.6 22.1142L1210.51 21.7808Z" fill="#212428"/>
<path d="M1210.54 27.0364L1209.72 28.3263C1209.49 28.6883 1209.21 28.959 1208.9 29.1385C1208.59 29.3197 1208.26 29.402 1207.92 29.3854C1207.58 29.3705 1207.25 29.2594 1206.92 29.0518C1206.6 28.8443 1206.36 28.5881 1206.2 28.283C1206.04 27.9797 1205.98 27.6492 1206.01 27.2916C1206.05 26.934 1206.18 26.5743 1206.41 26.2123L1207.23 24.9224L1210.54 27.0364ZM1207.05 26.6422C1206.85 26.9633 1206.78 27.2704 1206.83 27.5634C1206.89 27.8581 1207.08 28.1066 1207.4 28.3089C1207.71 28.5113 1208.02 28.5774 1208.31 28.5075C1208.6 28.4376 1208.85 28.2421 1209.06 27.921L1209.41 27.3617L1207.41 26.083L1207.05 26.6422Z" fill="#212428"/>
<path d="M1205.7 33.295C1205.48 33.4896 1205.25 33.6252 1205 33.7018C1204.76 33.7783 1204.51 33.7901 1204.28 33.7372C1204.05 33.6888 1203.84 33.5769 1203.67 33.4014L1204.34 32.7916C1204.48 32.9035 1204.62 32.9531 1204.78 32.9405C1204.94 32.9279 1205.1 32.8514 1205.25 32.7108C1205.4 32.5767 1205.49 32.4444 1205.53 32.3137C1205.56 32.1854 1205.54 32.0758 1205.46 31.9849C1205.4 31.9132 1205.32 31.8783 1205.22 31.8805C1205.13 31.8826 1205.01 31.9144 1204.87 31.9758C1204.73 32.0418 1204.54 32.1473 1204.29 32.2924C1203.91 32.5174 1203.58 32.6148 1203.3 32.5848C1203.02 32.5593 1202.78 32.4305 1202.57 32.1985C1202.41 32.0168 1202.32 31.8102 1202.3 31.5787C1202.28 31.3494 1202.33 31.1178 1202.44 30.8838C1202.56 30.6475 1202.72 30.4299 1202.94 30.231C1203.18 30.0147 1203.44 29.862 1203.7 29.7727C1203.97 29.6832 1204.22 29.6641 1204.47 29.7156C1204.72 29.7692 1204.94 29.8945 1205.13 30.0915L1204.46 30.6981C1204.32 30.5743 1204.15 30.5212 1203.96 30.5389C1203.76 30.5611 1203.57 30.6555 1203.39 30.822C1203.26 30.9431 1203.17 31.0725 1203.14 31.2101C1203.1 31.3499 1203.13 31.4676 1203.22 31.5633C1203.28 31.6398 1203.37 31.6816 1203.46 31.6886C1203.55 31.6977 1203.66 31.6737 1203.8 31.6166C1203.93 31.5617 1204.1 31.4688 1204.31 31.3379C1204.7 31.1039 1205.04 30.9863 1205.33 30.9851C1205.62 30.984 1205.89 31.1161 1206.13 31.3816C1206.28 31.5538 1206.37 31.7498 1206.38 31.9695C1206.38 32.1914 1206.33 32.4169 1206.21 32.6461C1206.09 32.8776 1205.92 33.0939 1205.7 33.295Z" fill="#212428"/>
<path d="M1199.5 37.2518L1196.79 38.2574L1196.52 37.5319L1198.41 36.8323L1198.1 35.9934L1196.43 36.6156L1196.16 35.8992L1197.84 35.2769L1197.32 33.8622L1198.15 33.5561L1199.5 37.2518Z" fill="#212428"/>
<path d="M1192.06 35.0239C1192.46 34.9895 1192.83 35.0483 1193.17 35.2004C1193.51 35.3495 1193.78 35.5721 1193.99 35.868C1194.19 36.1671 1194.31 36.5126 1194.35 36.9046C1194.38 37.2965 1194.31 37.6561 1194.16 37.9834C1194 38.3139 1193.77 38.5813 1193.46 38.7855C1193.15 38.9932 1192.8 39.1143 1192.4 39.1487C1192 39.1831 1191.63 39.1242 1191.29 38.9718C1190.96 38.8229 1190.68 38.5989 1190.47 38.2998C1190.27 38.0039 1190.15 37.66 1190.12 37.268C1190.08 36.8761 1190.15 36.5149 1190.3 36.1844C1190.46 35.8571 1190.7 35.5912 1191 35.3867C1191.31 35.1792 1191.66 35.0583 1192.06 35.0239ZM1192.13 35.8142C1191.89 35.8343 1191.69 35.907 1191.51 36.0325C1191.33 36.158 1191.19 36.3216 1191.1 36.5235C1191.01 36.7288 1190.97 36.9519 1190.99 37.1929C1191.01 37.437 1191.08 37.6508 1191.21 37.8342C1191.33 38.0178 1191.49 38.1561 1191.69 38.2491C1191.88 38.3421 1192.1 38.3785 1192.33 38.3584C1192.57 38.3383 1192.77 38.2656 1192.95 38.1401C1193.13 38.0146 1193.27 37.8508 1193.37 37.6487C1193.46 37.4469 1193.49 37.2239 1193.47 36.9797C1193.45 36.7388 1193.38 36.5249 1193.26 36.338C1193.13 36.1546 1192.97 36.0165 1192.78 35.9235C1192.58 35.8305 1192.36 35.7941 1192.13 35.8142Z" fill="#212428"/>
<path d="M1185.95 34.6887L1186.45 36.0569L1187.13 36.1937L1187.38 34.9747L1188.24 35.1464L1187.45 39.0123L1185.9 38.7028C1185.58 38.6386 1185.32 38.5279 1185.11 38.3707C1184.89 38.2166 1184.75 38.0277 1184.67 37.8039C1184.58 37.5801 1184.57 37.3355 1184.62 37.0698C1184.68 36.8042 1184.79 36.584 1184.95 36.4093C1185.11 36.2372 1185.31 36.12 1185.56 36.0578L1184.95 34.4896L1185.95 34.6887ZM1186.98 36.9574L1186.32 36.8272C1186.09 36.7813 1185.91 36.7931 1185.76 36.8629C1185.61 36.9351 1185.52 37.0613 1185.48 37.2416C1185.45 37.4218 1185.48 37.5723 1185.59 37.6929C1185.7 37.8161 1185.87 37.9007 1186.1 37.9466L1186.75 38.0769L1186.98 36.9574Z" fill="#212428"/>
<path d="M1178.83 32.2024L1180.09 33.0586L1180.75 32.5801L1181.5 33.0895L1178.02 35.4982L1177.27 34.986L1178.23 30.8649L1179.04 31.4149L1178.83 32.2024ZM1178.63 32.987L1178.26 34.4011L1179.44 33.5398L1178.63 32.987Z" fill="#212428"/>
<path d="M1173.49 27.6112L1174.3 27.7278L1175.04 27.249L1175.51 27.9893L1172.2 30.1217L1171.72 29.3814L1173.29 28.3767L1170.88 28.0554L1170.3 27.1484L1172.63 27.4845L1173.57 24.9468L1174.16 25.8701L1173.49 27.6112Z" fill="#212428"/>
<path d="M1169.04 24.0997L1172.72 22.6991L1173.03 23.5219L1169.35 24.9225L1169.04 24.0997Z" fill="#212428"/>
<path d="M1168.23 21.5478L1168.12 20.8208L1170.18 18.5228L1167.79 18.8813L1167.67 18.0108L1171.56 17.4265L1171.66 18.1535L1169.6 20.4514L1171.99 20.093L1172.12 20.9635L1168.23 21.5478Z" fill="#212428"/>
<path d="M1167.69 15.1524L1167.9 13.6376C1167.96 13.2126 1168.1 12.853 1168.31 12.5589C1168.51 12.2643 1168.78 12.0523 1169.1 11.9227C1169.41 11.7927 1169.76 11.7534 1170.14 11.8047C1170.53 11.8561 1170.85 11.9863 1171.13 12.1955C1171.4 12.4042 1171.59 12.6777 1171.71 13.0159C1171.83 13.3541 1171.86 13.7357 1171.8 14.1608L1171.59 15.6755L1167.69 15.1524ZM1171.03 14.043C1171.08 13.6659 1171.02 13.3566 1170.85 13.1151C1170.67 12.8732 1170.4 12.7272 1170.02 12.6772C1169.65 12.6271 1169.35 12.6952 1169.11 12.8815C1168.87 13.0678 1168.73 13.3495 1168.68 13.7266L1168.58 14.3833L1170.94 14.6998L1171.03 14.043Z" fill="#212428"/>
<path d="M1170.17 6.08383L1170.94 4.77883C1171.12 4.48697 1171.31 4.26704 1171.54 4.11903C1171.77 3.96824 1172.01 3.892 1172.26 3.89029C1172.51 3.88859 1172.76 3.96127 1173.01 4.10832C1173.26 4.25702 1173.44 4.44251 1173.57 4.6648C1173.69 4.88546 1173.74 5.13164 1173.71 5.40335C1173.69 5.67227 1173.59 5.95266 1173.42 6.24451L1173.1 6.7907L1174 7.32255L1173.55 8.08137L1170.17 6.08383ZM1172.74 5.88326C1172.86 5.66923 1172.91 5.47444 1172.88 5.29887C1172.85 5.12053 1172.74 4.97662 1172.56 4.86714C1172.37 4.75767 1172.2 4.73409 1172.03 4.79642C1171.86 4.85598 1171.72 4.99277 1171.59 5.20679L1171.29 5.71962L1172.43 6.39609L1172.74 5.88326Z" fill="#212428"/>
<path d="M1173.29 1.44578L1175.35 -0.644861L1175.89 -0.109318L1174.45 1.35344L1175.02 1.9161L1176.34 0.574087L1176.88 1.10963L1175.56 2.45164L1176.16 3.04481L1177.63 1.551L1178.17 2.08654L1176.08 4.20823L1173.29 1.44578Z" fill="#212428"/>
<path d="M1181.47 -0.155314L1180.18 -0.824674L1179.58 -0.462335L1180.21 0.601851L1179.46 1.05665L1177.44 -2.3181L1178.8 -3.13773C1179.08 -3.30766 1179.36 -3.40595 1179.62 -3.43261C1179.88 -3.46203 1180.11 -3.42227 1180.33 -3.31333C1180.54 -3.20439 1180.71 -3.03397 1180.85 -2.80209C1180.99 -2.57021 1181.06 -2.33482 1181.05 -2.09593C1181.05 -1.86148 1180.98 -1.63734 1180.83 -1.42354L1182.34 -0.682579L1181.47 -0.155314ZM1179.18 -1.12901L1179.75 -1.47385C1179.95 -1.59546 1180.08 -1.73099 1180.14 -1.88044C1180.21 -2.03433 1180.19 -2.18994 1180.1 -2.34729C1180 -2.50464 1179.87 -2.59057 1179.71 -2.60508C1179.55 -2.62402 1179.37 -2.57269 1179.17 -2.45108L1178.6 -2.10623L1179.18 -1.12901Z" fill="#212428"/>
<path d="M1184.07 -5.56888C1184.35 -5.65064 1184.62 -5.67208 1184.87 -5.6332C1185.13 -5.59433 1185.35 -5.50006 1185.54 -5.35041C1185.73 -5.20476 1185.86 -5.01464 1185.94 -4.78006L1185.07 -4.52391C1185 -4.6837 1184.89 -4.79228 1184.74 -4.84967C1184.59 -4.90705 1184.42 -4.90622 1184.22 -4.84718C1184.03 -4.79086 1183.89 -4.71123 1183.8 -4.60828C1183.71 -4.50843 1183.69 -4.39972 1183.72 -4.28216C1183.75 -4.18935 1183.8 -4.12355 1183.89 -4.08476C1183.97 -4.04596 1184.09 -4.0238 1184.24 -4.01827C1184.4 -4.01674 1184.62 -4.02765 1184.9 -4.05099C1185.34 -4.087 1185.68 -4.0308 1185.92 -3.88239C1186.16 -3.73799 1186.32 -3.51575 1186.41 -3.21567C1186.48 -2.98055 1186.47 -2.75484 1186.38 -2.53853C1186.3 -2.32313 1186.16 -2.13497 1185.95 -1.97403C1185.75 -1.81 1185.5 -1.6862 1185.22 -1.60263C1184.91 -1.5118 1184.62 -1.48418 1184.34 -1.51979C1184.06 -1.55321 1183.83 -1.64758 1183.62 -1.80288C1183.42 -1.95909 1183.28 -2.1684 1183.19 -2.43082L1184.06 -2.68562C1184.14 -2.51036 1184.26 -2.38884 1184.44 -2.32107C1184.63 -2.25731 1184.84 -2.2604 1185.08 -2.33034C1185.25 -2.38121 1185.38 -2.46166 1185.47 -2.5717C1185.56 -2.68265 1185.59 -2.8 1185.55 -2.92375C1185.52 -3.02274 1185.47 -3.09564 1185.39 -3.14244C1185.31 -3.19015 1185.2 -3.21768 1185.05 -3.22502C1184.91 -3.23328 1184.72 -3.22454 1184.47 -3.19882C1184.02 -3.15481 1183.67 -3.19628 1183.4 -3.32322C1183.14 -3.45016 1182.96 -3.68534 1182.86 -4.02873C1182.79 -4.25148 1182.8 -4.46436 1182.89 -4.66738C1182.98 -4.87131 1183.13 -5.05065 1183.33 -5.2054C1183.54 -5.36325 1183.78 -5.48441 1184.07 -5.56888Z" fill="#212428"/>
<path d="M1190.35 -2.37476C1189.95 -2.37327 1189.58 -2.4622 1189.26 -2.64155C1188.94 -2.81769 1188.69 -3.0618 1188.5 -3.37387C1188.32 -3.68916 1188.23 -4.04349 1188.23 -4.43684C1188.23 -4.8302 1188.32 -5.18359 1188.51 -5.49703C1188.69 -5.81368 1188.94 -6.06127 1189.26 -6.2398C1189.59 -6.42156 1189.95 -6.51319 1190.35 -6.51468C1190.76 -6.51617 1191.12 -6.42723 1191.44 -6.24786C1191.76 -6.07173 1192.02 -5.82602 1192.2 -5.51073C1192.38 -5.19865 1192.47 -4.84594 1192.47 -4.45258C1192.47 -4.05923 1192.38 -3.70422 1192.2 -3.38757C1192.01 -3.07414 1191.76 -2.82815 1191.43 -2.64962C1191.11 -2.46787 1190.75 -2.37625 1190.35 -2.37476ZM1190.35 -3.16792C1190.58 -3.16879 1190.8 -3.22439 1190.99 -3.33472C1191.18 -3.44504 1191.32 -3.59713 1191.43 -3.79098C1191.54 -3.98806 1191.6 -4.20751 1191.6 -4.44933C1191.6 -4.69437 1191.54 -4.91342 1191.43 -5.10647C1191.33 -5.29953 1191.18 -5.45052 1190.99 -5.55944C1190.8 -5.66836 1190.59 -5.72238 1190.35 -5.72151C1190.12 -5.72064 1189.91 -5.66504 1189.72 -5.55472C1189.53 -5.44439 1189.38 -5.2923 1189.27 -5.09843C1189.16 -4.90459 1189.11 -4.68514 1189.11 -4.4401C1189.11 -4.19828 1189.16 -3.97923 1189.27 -3.78295C1189.37 -3.5899 1189.52 -3.43892 1189.71 -3.32999C1189.9 -3.22107 1190.12 -3.16705 1190.35 -3.16792Z" fill="#212428"/>
<path d="M1195.31 -5.98319L1196.01 -5.77266L1197.2 -2.93837L1197.9 -5.25528L1198.74 -5.0032L1197.6 -1.22664L1196.9 -1.43717L1195.71 -4.27146L1195.01 -1.95455L1194.17 -2.20664L1195.31 -5.98319Z" fill="#212428"/>
</g>
<circle cx="208" cy="31" r="4" fill="#FDF301" stroke="#212428" stroke-width="2"/>
<path d="M279.201 52.2012H277.268V58.3711H288.148V52.2012H286.197V53.7129H279.201V52.2012ZM275.527 51.3047H290.012V49.7051H275.527V51.3047ZM276.266 47.332L276.986 48.8789C279.632 48.5186 281.741 47.3408 282.77 45.7236C283.789 47.332 285.89 48.5186 288.553 48.8789L289.238 47.332C285.951 46.9453 283.771 45.1611 283.771 43.4473V42.8496H281.768V43.4473C281.759 45.2139 279.588 46.9189 276.266 47.332ZM279.201 56.8242V55.207H286.197V56.8242H279.201ZM305.586 50.25H291.084V51.832H305.586V50.25ZM292.684 54.9434H301.895V58.5996H303.828V53.3789H292.684V54.9434ZM292.859 48.8262H303.969V47.2617H294.811V44.8008H303.828V43.2363H292.859V48.8262ZM319.174 42.6914H317.223V54.5566H319.174V49.3008H321.389V47.6836H319.174V42.6914ZM306.658 46.0137H316.08V44.4492H312.354V42.6738H310.402V44.4492H306.658V46.0137ZM307.467 49.7051C307.467 51.5244 309.058 52.7109 311.369 52.7109C313.663 52.7109 315.245 51.5244 315.254 49.7051C315.245 47.877 313.663 46.6641 311.369 46.6641C309.058 46.6641 307.467 47.877 307.467 49.7051ZM308.996 58.248H319.807V56.666H310.947V53.625H308.996V58.248ZM309.365 49.7051C309.356 48.7383 310.165 48.1758 311.369 48.1758C312.573 48.1758 313.391 48.7383 313.391 49.7051C313.391 50.6631 312.573 51.208 311.369 51.1992C310.165 51.208 309.356 50.6631 309.365 49.7051ZM340.953 49.125H326.469V50.6719H332.709V51.8672H328.174V53.3438H337.227V54.3633H328.191V58.4238H339.582V56.9297H330.107V55.7695H339.143V51.8672H334.66V50.6719H340.953V49.125ZM328.297 48.123H339.09V43.166H328.297V48.123ZM330.213 46.5938V44.6953H337.139V46.5938H330.213ZM355.332 42.6914H353.381V47.3848H350.322V49.002H353.381V54.3457H355.332V42.6914ZM342.236 51.1113L343.062 52.6758C347.659 51.208 350.428 48.0791 350.428 43.8867H343.062V45.4863H348.292C347.914 48 345.655 50.0303 342.236 51.1113ZM344.979 58.248H355.736V56.666H346.965V53.168H344.979V58.248ZM370.801 42.6738H368.832V58.582H370.801V42.6738ZM358.092 49.4414C358.083 52.8955 359.832 55.0664 362.24 55.0664C364.622 55.0664 366.38 52.8955 366.389 49.4414C366.38 46.0137 364.622 43.834 362.24 43.834C359.832 43.834 358.083 46.0137 358.092 49.4414ZM359.973 49.4414C359.973 47.0156 360.896 45.5918 362.24 45.5918C363.576 45.5918 364.49 47.0156 364.49 49.4414C364.49 51.8848 363.576 53.2998 362.24 53.3086C360.896 53.2998 359.973 51.8848 359.973 49.4414ZM383.053 53.0098V52.3594H381.154V53.0098C381.146 54.5566 380.152 56.1738 378.096 56.8945L379.062 58.3184C380.53 57.791 381.541 56.7979 382.112 55.5762C382.613 56.833 383.562 57.9053 385.074 58.459C386.516 57.8789 387.447 56.7715 387.966 55.5146C388.52 56.7891 389.539 57.7998 391.086 58.3184L392.035 56.8945C389.952 56.2354 388.968 54.6709 388.977 53.0098V52.3594H387.061V53.0098C387.052 54.2139 386.41 55.6553 385.021 56.5957C383.659 55.7168 383.053 54.3369 383.053 53.0098ZM377.691 47.3145C377.691 49.5205 379.52 51.085 381.98 51.0762C384.433 51.085 386.261 49.5205 386.252 47.3145C386.261 45.082 384.433 43.5352 381.98 43.5352C379.52 43.5352 377.691 45.082 377.691 47.3145ZM379.607 47.3145C379.599 46.0137 380.592 45.1787 381.98 45.1875C383.343 45.1787 384.336 46.0137 384.336 47.3145C384.336 48.6152 383.343 49.4502 381.98 49.459C380.592 49.4502 379.599 48.6152 379.607 47.3145ZM388.678 51.6914H390.646V42.6914H388.678V51.6914ZM400.191 43.5703C396.86 43.5703 394.294 45.3545 394.303 48.0527C394.294 50.7861 396.86 52.5703 400.191 52.5703C403.54 52.5703 406.124 50.7861 406.115 48.0527C406.124 45.3545 403.54 43.5703 400.191 43.5703ZM392.967 56.5605H407.486V54.9609H392.967V56.5605ZM396.184 48.0527C396.175 46.2949 397.88 45.1348 400.191 45.1523C402.512 45.1348 404.199 46.2949 404.199 48.0527C404.199 49.8545 402.512 50.9619 400.191 50.9707C397.88 50.9619 396.175 49.8545 396.184 48.0527ZM421.76 42.6914H419.791V54.293H421.76V42.6914ZM408.541 50.5488L409.561 52.0957C411.433 51.4189 412.751 50.0303 413.454 48.29C414.157 49.916 415.449 51.1816 417.26 51.8145L418.262 50.2676C415.739 49.4238 414.438 47.332 414.447 45.1172V43.5703H412.426V45.1172C412.435 47.4023 411.116 49.6436 408.541 50.5488ZM411.248 58.248H422.199V56.666H413.217V53.1855H411.248V58.248ZM436.525 42.6738H434.574V58.5293H436.525V50.5137H438.881V48.8789H436.525V42.6738ZM423.992 54.1875L425.1 55.6992C430.382 53.0977 432.315 48.9932 432.324 44.3262H424.854V45.9434H430.338C429.951 49.5645 427.859 52.2539 423.992 54.1875ZM454.156 55.0312H450.816V50.9707C452.047 50.2412 452.794 49.125 452.785 47.7363C452.794 45.2051 450.298 43.5352 446.861 43.5352C443.442 43.5352 440.964 45.2051 440.973 47.7363C440.964 49.1426 441.729 50.2852 442.994 51.0146V55.0312H439.637V56.6309H454.156V55.0312ZM442.889 47.7363C442.88 46.084 444.488 45.0732 446.861 45.082C449.226 45.0732 450.869 46.084 450.869 47.7363C450.869 49.3623 449.226 50.3994 446.861 50.3906C444.488 50.3994 442.88 49.3623 442.889 47.7363ZM444.928 55.0312V51.7266C445.525 51.8496 446.176 51.9199 446.861 51.9199C447.564 51.9199 448.224 51.8496 448.83 51.7178V55.0312H444.928ZM457.883 53.0977V53.2559H459.939V53.0977C459.957 51.7793 460.379 51.1729 461.398 50.5488C462.541 49.8721 463.253 48.9404 463.262 47.5078C463.253 45.416 461.627 44.0977 459.254 44.0977C457.083 44.0977 455.325 45.3018 455.264 47.666H457.461C457.522 46.4883 458.366 45.9258 459.236 45.9258C460.194 45.9258 460.968 46.5586 460.959 47.543C460.968 48.4219 460.388 49.0107 459.641 49.4941C458.533 50.1709 457.9 50.8564 457.883 53.0977ZM457.602 55.7695C457.593 56.5254 458.217 57.1406 458.973 57.1406C459.702 57.1406 460.326 56.5254 460.326 55.7695C460.326 55.0312 459.702 54.4248 458.973 54.416C458.217 54.4248 457.593 55.0312 457.602 55.7695ZM483.283 51.5332H468.799V53.1152H475.039V58.5469H476.973V53.1152H483.283V51.5332ZM469.555 48.9316L470.293 50.4609C472.974 50.0742 475.065 48.835 476.041 47.1211C477.008 48.835 479.117 50.0742 481.824 50.4609L482.527 48.9316C479.381 48.5361 477.307 46.8574 477.175 45.1172H481.947V43.5703H470.135V45.1172H474.907C474.767 46.8574 472.675 48.5361 469.555 48.9316ZM497.592 42.6914H495.623V54.1699H497.592V42.6914ZM484.637 47.7012C484.637 50.0479 486.509 51.6914 488.926 51.6914C491.343 51.6914 493.206 50.0479 493.197 47.7012C493.206 45.3896 491.343 43.7373 488.926 43.7285C486.509 43.7373 484.637 45.3896 484.637 47.7012ZM486.553 47.7012C486.544 46.3301 487.563 45.4336 488.926 45.4336C490.253 45.4336 491.281 46.3301 491.281 47.7012C491.281 49.1074 490.253 49.9863 488.926 49.9863C487.563 49.9863 486.544 49.1074 486.553 47.7012ZM487.08 58.248H498.031V56.666H489.049V53.0098H487.08V58.248ZM507.137 42.9199C503.524 42.9287 501.406 43.8867 501.406 45.6445C501.406 47.4199 503.524 48.3779 507.137 48.3867C510.758 48.3779 512.858 47.4199 512.867 45.6445C512.858 43.8867 510.758 42.9287 507.137 42.9199ZM499.912 50.7949H514.396V49.2305H499.912V50.7949ZM501.617 53.3086H510.67V54.3633H501.635V58.4238H513.025V56.9297H503.551V55.752H512.586V51.8672H501.617V53.3086ZM503.463 45.6445C503.454 44.8271 504.72 44.3613 507.137 44.3613C509.589 44.3613 510.846 44.8271 510.846 45.6445C510.846 46.5234 509.589 46.9277 507.137 46.9277C504.72 46.9277 503.454 46.5234 503.463 45.6445ZM525.453 45.9258V45.873H528.775V44.3262H525.471V42.6035H523.502V44.3262H520.18V45.873H523.502V45.9258C523.502 47.7891 522.157 49.5381 519.652 50.2148L520.584 51.7617C522.456 51.2168 523.792 50.0566 524.495 48.5625C525.207 49.916 526.517 50.9707 528.354 51.4629L529.232 49.9688C526.736 49.3008 525.444 47.6309 525.453 45.9258ZM521.217 57L521.938 58.4766C524.398 58.125 526.271 57.0879 527.185 55.6553C528.099 57.0967 529.979 58.1602 532.467 58.5117L533.17 57.0176C530.454 56.6396 528.679 55.4004 528.301 54.082H532.502V52.5176H521.867V54.082H526.086C525.708 55.4355 523.941 56.6309 521.217 57ZM530.322 51.7793H532.273V47.9824H534.488V46.3652H532.273V42.6738H530.322V51.7793ZM542.521 42.9199C538.909 42.9287 536.791 43.8867 536.791 45.6445C536.791 47.4199 538.909 48.3779 542.521 48.3867C546.143 48.3779 548.243 47.4199 548.252 45.6445C548.243 43.8867 546.143 42.9287 542.521 42.9199ZM535.297 50.7949H549.781V49.2305H535.297V50.7949ZM537.002 53.3086H546.055V54.3633H537.02V58.4238H548.41V56.9297H538.936V55.752H547.971V51.8672H537.002V53.3086ZM538.848 45.6445C538.839 44.8271 540.104 44.3613 542.521 44.3613C544.974 44.3613 546.23 44.8271 546.23 45.6445C546.23 46.5234 544.974 46.9277 542.521 46.9277C540.104 46.9277 538.839 46.5234 538.848 45.6445ZM563.404 43.9922V43.1836H561.348V43.9922C561.348 46.0049 559.115 48.0176 555.758 48.457L556.531 50.0391C559.203 49.6348 561.339 48.3076 562.376 46.5146C563.413 48.3076 565.558 49.6348 568.256 50.0391L569.029 48.457C565.637 48.0176 563.396 45.9873 563.404 43.9922ZM555.125 53.0273H561.365V58.5645H563.299V53.0273H569.609V51.4102H555.125V53.0273ZM580.596 53.0098V52.3594H578.697V53.0098C578.688 54.5566 577.695 56.1738 575.639 56.8945L576.605 58.3184C578.073 57.791 579.084 56.7979 579.655 55.5762C580.156 56.833 581.105 57.9053 582.617 58.459C584.059 57.8789 584.99 56.7715 585.509 55.5146C586.062 56.7891 587.082 57.7998 588.629 58.3184L589.578 56.8945C587.495 56.2354 586.511 54.6709 586.52 53.0098V52.3594H584.604V53.0098C584.595 54.2139 583.953 55.6553 582.564 56.5957C581.202 55.7168 580.596 54.3369 580.596 53.0098ZM575.234 47.3145C575.234 49.5205 577.062 51.085 579.523 51.0762C581.976 51.085 583.804 49.5205 583.795 47.3145C583.804 45.082 581.976 43.5352 579.523 43.5352C577.062 43.5352 575.234 45.082 575.234 47.3145ZM577.15 47.3145C577.142 46.0137 578.135 45.1787 579.523 45.1875C580.886 45.1787 581.879 46.0137 581.879 47.3145C581.879 48.6152 580.886 49.4502 579.523 49.459C578.135 49.4502 577.142 48.6152 577.15 47.3145ZM586.221 51.6914H588.189V42.6914H586.221V51.6914ZM603.412 49.8984H594.219V45.416H603.289V43.8516H592.268V51.4453H596.768V55.084H590.51V56.6836H605.029V55.084H598.701V51.4453H603.412V49.8984ZM620.568 51.2695H614.275V49.9512H619.092V48.4219H609.828V47.1562H618.775V43.0254H607.842V44.5547H616.824V45.7324H607.895V49.9512H612.342V51.2695H606.049V52.8516H620.568V51.2695ZM607.666 55.4004H616.895V58.459H618.863V53.8535H607.666V55.4004ZM638.797 49.8984H629.604V45.416H638.674V43.8516H627.652V51.4453H632.152V55.084H625.895V56.6836H640.414V55.084H634.086V51.4453H638.797V49.8984ZM646.197 43.6582C643.701 43.6582 641.873 45.2314 641.891 47.4902C641.873 49.4502 643.253 50.8916 645.248 51.2432V53.6338C643.824 53.6689 642.453 53.6777 641.258 53.6777L641.539 55.2773C644.264 55.3125 647.894 55.2949 651.225 54.6973L651.084 53.2383C649.845 53.4053 648.526 53.502 647.199 53.5723V51.2256C649.133 50.8652 650.504 49.4326 650.521 47.4902C650.504 45.2314 648.641 43.6582 646.197 43.6582ZM643.789 47.4902C643.78 46.1543 644.809 45.3281 646.197 45.3105C647.56 45.3281 648.579 46.1543 648.588 47.4902C648.579 48.8174 647.56 49.6699 646.197 49.6523C644.809 49.6699 643.78 48.8174 643.789 47.4902ZM651.998 58.5645H653.949V50.6719H656.252V49.0195H653.949V42.6738H651.998V58.5645ZM671.492 51.5332H657.008V53.1152H663.248V58.5469H665.182V53.1152H671.492V51.5332ZM657.764 48.9316L658.502 50.4609C661.183 50.0742 663.274 48.835 664.25 47.1211C665.217 48.835 667.326 50.0742 670.033 50.4609L670.736 48.9316C667.59 48.5361 665.516 46.8574 665.384 45.1172H670.156V43.5703H658.344V45.1172H663.116C662.976 46.8574 660.884 48.5361 657.764 48.9316ZM678.576 46.4883V43.957H676.59V46.4883C676.581 49.5557 675.034 52.5879 672.389 53.7305L673.584 55.3652C675.509 54.46 676.88 52.6318 677.609 50.3994C678.348 52.4736 679.684 54.1523 681.512 54.9961L682.672 53.4316C680.097 52.3242 678.559 49.4062 678.576 46.4883ZM683.814 58.582H685.783V42.6738H683.814V58.582ZM696.277 44.0098H688.807V51.6211H696.277V50.25H699.477V54.2578H701.428V42.6914H699.477V45.2754H696.277V44.0098ZM690.758 50.0918V45.5566H694.344V50.0918H690.758ZM690.951 58.248H701.779V56.666H692.938V53.1855H690.951V58.248ZM696.277 48.6855V46.875H699.477V48.6855H696.277ZM819.816 49.8809H805.297V51.3574H819.816V49.8809ZM806.984 53.6777H816.125V54.6621H807.002V58.3887H818.533V57.0352H808.953V55.9277H818.059V52.3066H806.984V53.6777ZM807.09 44.3789H816.072V45.3457H807.143V48.9844H818.305V47.6484H809.076V46.6113H818.023V43.0254H807.09V44.3789ZM839.627 50.0742H825.143V51.6562H839.627V50.0742ZM825.846 47.8242L826.514 49.3711C829.396 49.0723 831.506 47.9209 832.367 46.3125C833.229 47.9209 835.364 49.0723 838.256 49.3711L838.941 47.8242C835.927 47.5342 834.028 46.3389 833.738 45.0293H838.326V43.4297H826.461V45.0293H831.005C830.706 46.3564 828.79 47.5342 825.846 47.8242ZM826.83 55.6289C826.83 57.501 828.913 58.5469 832.367 58.5469C835.795 58.5469 837.86 57.501 837.869 55.6289C837.86 53.7832 835.795 52.7109 832.367 52.7109C828.913 52.7109 826.83 53.7832 826.83 55.6289ZM828.816 55.6289C828.808 54.7061 830.056 54.2402 832.367 54.2402C834.644 54.2402 835.9 54.7061 835.918 55.6289C835.9 56.5518 834.644 57.0088 832.367 57.0176C830.056 57.0088 828.808 56.5518 828.816 55.6289ZM854.006 42.6738H852.055V46.6289H849.348V48.2285H852.055V52.1133H854.006V42.6738ZM840.646 50.5312L841.666 52.0781C843.556 51.4102 844.883 50.0391 845.577 48.3516C846.28 49.8457 847.528 51.0586 849.295 51.6562L850.279 50.1094C847.818 49.2832 846.535 47.332 846.535 45.3984V45.293H849.822V43.7109H841.244V45.293H844.549V45.416C844.549 47.5166 843.204 49.6523 840.646 50.5312ZM843.23 55.541C843.213 57.4482 845.278 58.5557 848.627 58.5645C851.993 58.5557 854.05 57.4482 854.059 55.541C854.05 53.6338 851.993 52.5176 848.627 52.5176C845.278 52.5176 843.213 53.6338 843.23 55.541ZM845.164 55.541C845.155 54.5479 846.421 54.0117 848.627 54.0117C850.851 54.0117 852.107 54.5479 852.107 55.541C852.107 56.5254 850.851 57.0615 848.627 57.0527C846.421 57.0615 845.155 56.5254 845.164 55.541ZM864.008 45.2051H861.107V43.1309H859.174V45.2051H856.221V46.7695H864.008V45.2051ZM856.678 51.3047C856.66 53.5107 858.128 55.0488 860.141 55.0488C862.162 55.0488 863.604 53.5107 863.604 51.3047C863.604 49.1426 862.162 47.6045 860.141 47.6133C858.128 47.6045 856.66 49.1426 856.678 51.3047ZM858.4 51.3047C858.392 50.0566 859.112 49.2305 860.141 49.2305C861.16 49.2305 861.881 50.0566 861.881 51.3047C861.881 52.5879 861.16 53.3877 860.141 53.3789C859.112 53.3877 858.392 52.5879 858.4 51.3047ZM864.676 57.8438H866.504V50.7949H868.051V58.5645H869.914V42.6738H868.051V49.2129H866.504V43.0078H864.676V57.8438ZM884.715 50.127H875.504V45.6445H884.592V44.0625H873.57V51.6914H884.715V50.127ZM871.812 56.543H886.332V54.9258H871.812V56.543ZM900.676 42.6738H898.725V46.1367H895.877V47.7363H898.725V50.4609H895.824V52.0605H898.725V58.582H900.676V42.6738ZM887.896 45.6094H893.064V48.457H887.949V54.9785H889.18C891.649 54.9785 893.671 54.9258 896.105 54.5391L895.947 52.9395C893.803 53.2559 891.983 53.3525 889.883 53.3613V49.9863H894.98V44.0449H887.896V45.6094ZM917.445 55.0312H914.105V50.9707C915.336 50.2412 916.083 49.125 916.074 47.7363C916.083 45.2051 913.587 43.5352 910.15 43.5352C906.731 43.5352 904.253 45.2051 904.262 47.7363C904.253 49.1426 905.018 50.2852 906.283 51.0146V55.0312H902.926V56.6309H917.445V55.0312ZM906.178 47.7363C906.169 46.084 907.777 45.0732 910.15 45.082C912.515 45.0732 914.158 46.084 914.158 47.7363C914.158 49.3623 912.515 50.3994 910.15 50.3906C907.777 50.3994 906.169 49.3623 906.178 47.7363ZM908.217 55.0312V51.7266C908.814 51.8496 909.465 51.9199 910.15 51.9199C910.854 51.9199 911.513 51.8496 912.119 51.7178V55.0312H908.217ZM921.752 44.2734H919.361L919.572 53.2559H921.559L921.752 44.2734ZM919.203 55.7695C919.194 56.5254 919.818 57.1406 920.574 57.1406C921.304 57.1406 921.928 56.5254 921.928 55.7695C921.928 55.0312 921.304 54.4248 920.574 54.416C919.818 54.4248 919.194 55.0312 919.203 55.7695Z" fill="white"/>
<path d="M722.592 54.8027H716.387V51.252H713.873V54.8027H707.844V56.8242H722.592V54.8027ZM708.125 49.7578L709.197 51.8672C712.08 51.3662 714.066 49.8984 715.112 47.9912C716.167 49.9072 718.171 51.3574 721.08 51.8672L722.152 49.7578C718.18 49.1777 716.466 46.7256 716.475 44.5371V43.4297H713.768V44.5371C713.75 46.6904 712.045 49.1777 708.125 49.7578ZM737.059 42.5508H734.545V46.4004H732.26V48.4395H734.545V52.1309H737.059V42.5508ZM723.242 50.1797L724.561 52.1836C726.45 51.5508 727.689 50.2939 728.393 48.7383C729.096 50.1094 730.273 51.2168 732.031 51.7793L733.262 49.793C730.818 48.9844 729.781 47.2266 729.658 45.4863H732.717V43.4648H723.963V45.4863H727.048C726.925 47.3672 725.853 49.3271 723.242 50.1797ZM725.914 55.5762C725.914 57.5537 728.041 58.7139 731.486 58.7227C734.976 58.7139 737.103 57.5537 737.111 55.5762C737.103 53.5986 734.976 52.4385 731.486 52.4297C728.041 52.4385 725.914 53.5986 725.914 55.5762ZM728.428 55.5762C728.428 54.7236 729.474 54.3457 731.486 54.3457C733.543 54.3457 734.58 54.7236 734.598 55.5762C734.58 56.4111 733.543 56.7979 731.486 56.7891C729.474 56.7979 728.428 56.4111 728.428 55.5762ZM744.16 43.6055C741.62 43.5967 739.643 45.2754 739.643 47.6133C739.643 49.96 741.62 51.6299 744.16 51.6211C746.727 51.6299 748.66 49.96 748.678 47.6133C748.66 45.2754 746.727 43.5967 744.16 43.6055ZM739.027 53.4668L739.309 55.5059C742.104 55.5059 745.883 55.4707 749.416 54.7852L749.223 52.957C745.812 53.4316 741.866 53.4756 739.027 53.4668ZM742.156 47.6133C742.156 46.4355 743.026 45.7852 744.16 45.7852C745.32 45.7852 746.199 46.4355 746.217 47.6133C746.199 48.8174 745.312 49.4502 744.16 49.4414C743.035 49.4502 742.156 48.8174 742.156 47.6133ZM750.084 58.7227H752.598V42.5508H750.084V58.7227ZM772.109 42.5508H769.596V58.7227H772.109V42.5508ZM759.383 54.9961H760.859C763.865 54.9873 766.238 54.8994 768.787 54.4336L768.576 52.3945C766.379 52.7637 764.393 52.8955 762.002 52.9219V50.2324H767.082V43.8691H759.383V45.8906H764.498V48.2461H759.383V54.9961ZM788 42.5684H785.416V53.3789H782.27V55.2598H785.416V58.6699H788V42.5684ZM774.043 50.6543L774.324 52.6934C775.423 52.6934 776.627 52.6846 777.893 52.6494V58.2129H780.459V52.5176C781.839 52.4121 783.236 52.2539 784.607 52.0078L784.449 50.1621C781.004 50.6279 777.022 50.6455 774.043 50.6543ZM775.133 46.5234C775.124 48.5273 776.882 49.8633 779.299 49.8633C781.672 49.8633 783.447 48.5273 783.447 46.5234C783.447 44.5723 781.672 43.1748 779.299 43.166C776.882 43.1748 775.124 44.5723 775.133 46.5234ZM777.506 46.5234C777.506 45.6182 778.218 45.082 779.299 45.0645C780.327 45.082 781.048 45.6182 781.057 46.5234C781.048 47.4639 780.318 47.9385 779.299 47.9297C778.227 47.9385 777.506 47.4639 777.506 46.5234ZM802.836 49.9336H793.836V45.8906H802.73V43.8516H791.34V51.9375H802.836V49.9336ZM789.652 56.8066H804.4V54.7148H789.652V56.8066Z" fill="#FDF301"/>
</g>
<g filter="url(#filter0_d_128_1772)">
<circle cx="1010.73" cy="50.4382" r="49" fill="#FDF301" stroke="#212428" stroke-width="2"/>
<circle cx="1010.73" cy="50.4382" r="29.2469" fill="#FDF301" stroke="#212428" stroke-width="2"/>
<path d="M1009.94 50.2894C1009.01 53.7393 1007.21 56.5596 1005.1 58.3436C1002.98 60.1305 1000.63 60.8216 998.516 60.2544C996.399 59.6872 994.712 57.9149 993.772 55.3089C992.833 52.707 992.684 49.3642 993.608 45.9143C994.533 42.4644 996.333 39.6441 998.447 37.86C1000.56 36.0732 1002.91 35.382 1005.03 35.9493C1007.15 36.5165 1008.83 38.2888 1009.77 40.8948C1010.71 43.4967 1010.86 46.8395 1009.94 50.2894Z" fill="white" stroke="#212428" stroke-width="2"/>
<ellipse cx="998.056" cy="47.7304" rx="5.45116" ry="7.83266" transform="rotate(15 998.056 47.7304)" fill="#212428"/>
<path d="M1027.22 52.8025C1026.3 56.2524 1024.5 59.0728 1022.38 60.8568C1020.26 62.6436 1017.92 63.3348 1015.8 62.7676C1013.68 62.2004 1012 60.428 1011.06 57.8221C1010.12 55.2201 1009.97 51.8774 1010.89 48.4275C1011.82 44.9776 1013.62 42.1572 1015.73 40.3732C1017.85 38.5864 1020.2 37.8952 1022.31 38.4624C1024.43 39.0297 1026.12 40.802 1027.06 43.408C1028 46.0099 1028.14 49.3527 1027.22 52.8025Z" fill="white" stroke="#212428" stroke-width="2"/>
<ellipse cx="1015.34" cy="50.2436" rx="5.45116" ry="7.83266" transform="rotate(15 1015.34 50.2436)" fill="#212428"/>
<circle cx="1006.41" cy="65.9143" r="2.46914" fill="#212428"/>
<path d="M1009.94 50.2894C1009.01 53.7393 1007.21 56.5596 1005.1 58.3436C1002.98 60.1305 1000.63 60.8216 998.516 60.2544C996.399 59.6872 994.712 57.9149 993.772 55.3089C992.833 52.707 992.684 49.3642 993.608 45.9143C994.533 42.4644 996.333 39.6441 998.447 37.86C1000.56 36.0732 1002.91 35.382 1005.03 35.9493C1007.15 36.5165 1008.83 38.2888 1009.77 40.8948C1010.71 43.4967 1010.86 46.8395 1009.94 50.2894Z" fill="white" stroke="#212428" stroke-width="2"/>
<ellipse cx="998.056" cy="47.7304" rx="5.45116" ry="7.83266" transform="rotate(15 998.056 47.7304)" fill="#212428"/>
<path d="M1001.77 84.7719L1002.66 87.361L1003.94 87.6464L1004.44 85.3683L1006.04 85.7264L1004.45 92.9508L1001.56 92.3053C1000.96 92.1714 1000.46 91.9526 1000.08 91.6486C999.685 91.3506 999.416 90.9899 999.269 90.5664C999.122 90.143 999.103 89.683 999.213 89.1866C999.322 88.6902 999.533 88.2815 999.844 87.9604C1000.15 87.6438 1000.53 87.4323 1001 87.3259L999.909 84.3567L1001.77 84.7719ZM1003.62 89.0735L1002.41 88.8019C1001.98 88.7061 1001.62 88.7206 1001.35 88.8455C1001.07 88.9749 1000.89 89.208 1000.82 89.5448C1000.74 89.8817 1000.81 90.1656 1001.01 90.3967C1001.2 90.6324 1001.51 90.7981 1001.94 90.8939L1003.16 91.1655L1003.62 89.0735Z" fill="#212428"/>
<path d="M993.966 89.9355L989.087 87.4448L989.733 86.1656L993.146 87.9082L993.825 86.5642L990.693 84.9654L991.339 83.6861L994.471 85.2849L995.186 83.868L991.7 82.0884L992.345 80.8091L997.297 83.3368L993.966 89.9355Z" fill="#212428"/>
<path d="M977.645 77.8202L984.292 73.9929L985.484 75.156L983.219 79.4098L987.377 77.0017L988.57 78.1647L984.97 84.9629L983.706 83.7303L986.149 79.3709L981.891 81.9604L980.666 80.7657L983.103 76.4257L978.851 78.9959L977.645 77.8202Z" fill="#212428"/>
<path d="M977.84 66.6494L979.178 69.1834L980.68 68.9675L981.476 70.4751L973.639 71.4124L972.838 69.8968L977.999 63.8914L978.859 65.5193L977.84 66.6494ZM976.817 67.7714L974.985 69.799L977.681 69.4073L976.817 67.7714Z" fill="#212428"/>
<path d="M976.178 57.0502L974.233 58.9688L974.525 60.2523L976.787 59.7322L977.154 61.3432L969.98 62.9925L969.32 60.0891C969.183 59.4872 969.168 58.9443 969.274 58.4604C969.374 57.9778 969.583 57.579 969.9 57.2639C970.218 56.9487 970.623 56.7345 971.116 56.6212C971.609 56.5078 972.066 56.5238 972.488 56.6689C972.903 56.8095 973.258 57.0693 973.554 57.4483L975.753 55.1825L976.178 57.0502ZM973.108 60.5781L972.83 59.3566C972.732 58.9258 972.569 58.6126 972.339 58.417C972.102 58.2169 971.816 58.1553 971.482 58.2322C971.147 58.3091 970.92 58.4887 970.799 58.7711C970.67 59.049 970.655 59.4033 970.753 59.8341L971.031 61.0556L973.108 60.5781Z" fill="#212428"/>
<path d="M968.14 52.0687L968.268 49.2023C968.304 48.398 968.492 47.7036 968.831 47.119C969.164 46.5342 969.618 46.0941 970.192 45.7989C970.759 45.5034 971.404 45.3719 972.125 45.4045C972.847 45.4371 973.48 45.6263 974.025 45.9721C974.564 46.3176 974.974 46.7966 975.253 47.4091C975.533 48.0217 975.655 48.7301 975.62 49.5344L975.491 52.4008L968.14 52.0687ZM974.168 49.4415C974.2 48.728 974.033 48.1599 973.666 47.7373C973.293 47.3145 972.755 47.0872 972.052 47.0554C971.348 47.0237 970.792 47.2015 970.383 47.589C969.974 47.9765 969.753 48.5271 969.721 49.2407L969.666 50.4834L974.113 50.6843L974.168 49.4415Z" fill="#212428"/>
<path d="M970.134 37.3683C970.302 36.8502 970.551 36.4129 970.881 36.0564C971.212 35.6998 971.592 35.4549 972.021 35.3216C972.446 35.1807 972.883 35.1708 973.331 35.292L972.806 36.9153C972.482 36.8602 972.198 36.9169 971.954 37.0852C971.709 37.2535 971.527 37.5247 971.406 37.8989C971.29 38.2558 971.266 38.5565 971.332 38.8011C971.393 39.0437 971.532 39.2007 971.749 39.2718C971.921 39.328 972.082 39.3106 972.232 39.2195C972.381 39.1284 972.541 38.9674 972.711 38.7365C972.877 38.4979 973.092 38.1451 973.357 37.678C973.769 36.9533 974.215 36.4849 974.695 36.2727C975.171 36.053 975.687 36.0339 976.242 36.2156C976.677 36.3579 977.017 36.6091 977.261 36.9691C977.507 37.3234 977.646 37.7445 977.678 38.2324C977.716 38.7222 977.649 39.2318 977.478 39.7614C977.292 40.3371 977.024 40.8224 976.675 41.2173C976.333 41.6084 975.935 41.8793 975.481 42.03C975.029 42.175 974.553 42.1784 974.054 42.0404L974.576 40.4257C974.929 40.4901 975.253 40.4179 975.548 40.209C975.84 39.9925 976.057 39.6626 976.201 39.2194C976.305 38.897 976.319 38.6088 976.243 38.3548C976.169 38.095 976.017 37.9276 975.788 37.8527C975.605 37.7928 975.435 37.8007 975.277 37.8765C975.122 37.9466 974.961 38.0913 974.795 38.3107C974.631 38.5244 974.438 38.8369 974.216 39.2482C973.812 39.9881 973.373 40.4967 972.897 40.7739C972.421 41.0511 971.865 41.0857 971.23 40.8779C970.818 40.743 970.5 40.5022 970.277 40.1554C970.055 39.8029 969.934 39.3845 969.914 38.9004C969.887 38.4143 969.961 37.9036 970.134 37.3683Z" fill="#212428"/>
<path d="M976.493 25.1311L979.949 20.9588L981.059 21.8886L978.655 24.791L979.938 25.8661L982.076 23.2846L983.173 24.2027L981.035 26.7842L983.199 28.5973L982.148 29.8671L976.493 25.1311Z" fill="#212428"/>
<path d="M990.65 21.7805C990.032 22.2119 989.377 22.4626 988.685 22.5327C988.002 22.6043 987.353 22.4973 986.738 22.2116C986.12 21.921 985.602 21.4723 985.183 20.8656C984.764 20.2589 984.529 19.616 984.478 18.9368C984.424 18.2528 984.549 17.6014 984.855 16.9827C985.163 16.3557 985.625 15.8264 986.243 15.395C986.862 14.9636 987.514 14.7146 988.201 14.6479C988.889 14.5729 989.542 14.6806 990.161 14.9713C990.775 15.257 991.292 15.7031 991.711 16.3099C992.129 16.9166 992.366 17.562 992.421 18.2461C992.472 18.9252 992.342 19.5758 992.031 20.1979C991.729 20.8215 991.268 21.349 990.65 21.7805ZM989.806 20.5571C990.167 20.3051 990.435 19.9928 990.61 19.6201C990.785 19.2474 990.851 18.8549 990.809 18.4426C990.767 18.0219 990.618 17.6251 990.361 17.2521C990.1 16.8741 989.782 16.5946 989.408 16.4136C989.039 16.2291 988.65 16.1541 988.242 16.1886C987.833 16.2232 987.449 16.3664 987.088 16.6184C986.727 16.8703 986.459 17.1827 986.284 17.5554C986.109 17.9281 986.04 18.3223 986.078 18.738C986.12 19.1503 986.272 19.5454 986.533 19.9234C986.79 20.2964 987.105 20.5776 987.478 20.7671C987.852 20.9481 988.243 21.0213 988.652 20.9868C989.06 20.9523 989.445 20.809 989.806 20.5571Z" fill="#212428"/>
<path d="M1000.9 16.5903L998.804 14.8365L997.563 15.2567L998.304 17.4682L996.746 17.9956L994.398 10.9822L997.205 10.0319C997.787 9.83482 998.322 9.76522 998.812 9.82307C999.299 9.87518 999.715 10.0443 1000.06 10.3304C1000.4 10.6165 1000.65 11.0004 1000.82 11.4823C1000.98 11.9642 1001.01 12.4236 1000.91 12.8603C1000.81 13.2894 1000.59 13.671 1000.24 14.0052L1002.7 15.9789L1000.9 16.5903ZM997.099 13.8712L998.28 13.4713C998.697 13.3303 998.99 13.1351 999.161 12.8858C999.335 12.6287 999.368 12.3367 999.258 12.0097C999.149 11.6827 998.948 11.4727 998.657 11.3798C998.369 11.2793 998.017 11.2995 997.6 11.4405L996.419 11.8403L997.099 13.8712Z" fill="#212428"/>
<path d="M1014.78 13.9585L1011.93 13.7477L1011.31 15.1404L1009.62 15.015L1013.01 7.84558L1014.71 7.97167L1017.01 15.5627L1015.19 15.4273L1014.78 13.9585ZM1014.38 12.4904L1013.65 9.85056L1012.54 12.3543L1014.38 12.4904Z" fill="#212428"/>
<path d="M1027.76 16.4016L1026.34 16.97L1025.58 18.4454L1024.12 17.6852L1027.51 11.1144L1028.97 11.8746L1027.37 14.9705L1031.58 13.2362L1033.37 14.1676L1029.27 15.8061L1030.12 20.8095L1028.3 19.8613L1027.76 16.4016Z" fill="#212428"/>
<path d="M1038.28 17.9337L1033.61 23.6582L1032.34 22.611L1037 16.8864L1038.28 17.9337Z" fill="#212428"/>
<path d="M1041.99 21.3147L1042.84 22.3965L1041.65 28.0561L1045.19 25.2369L1046.21 26.5323L1040.45 31.1275L1039.59 30.0456L1040.78 24.3861L1037.24 27.2053L1036.22 25.9099L1041.99 21.3147Z" fill="#212428"/>
<path d="M1048.85 31.2004L1049.93 33.8564C1050.23 34.6016 1050.35 35.3111 1050.28 35.985C1050.22 36.6565 1050 37.2473 1049.6 37.7573C1049.21 38.265 1048.68 38.6563 1048.01 38.9312C1047.34 39.206 1046.69 39.3015 1046.05 39.2175C1045.41 39.1313 1044.84 38.8692 1044.33 38.4313C1043.82 37.9934 1043.42 37.4019 1043.11 36.6566L1042.03 34.0007L1048.85 31.2004ZM1044.47 36.1287C1044.74 36.7899 1045.13 37.2349 1045.64 37.4637C1046.15 37.6902 1046.73 37.6695 1047.39 37.4015C1048.04 37.1335 1048.47 36.7373 1048.68 36.213C1048.89 35.6887 1048.86 35.096 1048.59 34.4348L1048.12 33.2833L1044 34.9772L1044.47 36.1287Z" fill="#212428"/>
<path d="M1053.33 48.2466L1053.3 51.0886C1053.29 51.7241 1053.17 52.2677 1052.95 52.7194C1052.72 53.1772 1052.4 53.525 1052 53.763C1051.59 54.0009 1051.12 54.1171 1050.57 54.1115C1050.03 54.1059 1049.55 53.9799 1049.14 53.7335C1048.74 53.4872 1048.43 53.1329 1048.21 52.6706C1048 52.2143 1047.89 51.6684 1047.9 51.0328L1047.91 49.8434L1045.95 49.8232L1045.97 48.1707L1053.33 48.2466ZM1049.35 50.9752C1049.35 51.4413 1049.45 51.8026 1049.67 52.059C1049.88 52.3215 1050.19 52.4549 1050.59 52.459C1050.99 52.4632 1051.3 52.3362 1051.52 52.0781C1051.73 51.8261 1051.84 51.467 1051.84 51.0009L1051.85 49.8841L1049.36 49.8584L1049.35 50.9752Z" fill="#212428"/>
<path d="M1052.61 58.6996L1051.23 64.0237L1049.85 63.6612L1050.82 59.9362L1049.37 59.5554L1048.48 62.973L1047.1 62.6106L1047.98 59.193L1046.46 58.7916L1045.47 62.5957L1044.09 62.2333L1045.49 56.8302L1052.61 58.6996Z" fill="#212428"/>
<path d="M1040.83 68.9648L1043.56 68.8428L1044.19 67.6915L1042.16 66.5592L1042.96 65.1142L1049.39 68.7051L1047.96 71.3093C1047.66 71.8491 1047.31 72.2635 1046.91 72.5524C1046.51 72.8442 1046.09 73.0008 1045.65 73.0222C1045.2 73.0435 1044.76 72.9308 1044.32 72.6841C1043.88 72.4374 1043.55 72.1183 1043.33 71.7268C1043.11 71.3435 1043.02 70.9114 1043.05 70.4305L1039.91 70.6401L1040.83 68.9648ZM1045.46 68.4009L1044.86 69.4966C1044.64 69.8829 1044.56 70.226 1044.6 70.5259C1044.64 70.834 1044.81 71.0717 1045.11 71.2391C1045.41 71.4066 1045.7 71.4258 1045.98 71.2969C1046.26 71.1763 1046.51 70.9228 1046.72 70.5364L1047.33 69.4407L1045.46 68.4009Z" fill="#212428"/>
<path d="M1041.68 80.1971C1041.3 80.5905 1040.89 80.8755 1040.44 81.0522C1039.99 81.2289 1039.54 81.2835 1039.1 81.216C1038.65 81.157 1038.25 80.975 1037.9 80.6701L1039.08 79.4375C1039.34 79.6286 1039.62 79.7018 1039.92 79.657C1040.21 79.6122 1040.49 79.4477 1040.76 79.1636C1041.02 78.8926 1041.17 78.6324 1041.22 78.3831C1041.27 78.138 1041.21 77.9359 1041.05 77.7768C1040.92 77.6511 1040.76 77.5966 1040.59 77.6132C1040.42 77.6298 1040.2 77.705 1039.95 77.8389C1039.7 77.9813 1039.35 78.205 1038.91 78.5098C1038.23 78.9827 1037.62 79.2097 1037.1 79.191C1036.57 79.1809 1036.1 78.9727 1035.68 78.5665C1035.35 78.2482 1035.15 77.8735 1035.09 77.4425C1035.02 77.0158 1035.08 76.5758 1035.26 76.1223C1035.43 75.6647 1035.72 75.2348 1036.1 74.8327C1036.51 74.3956 1036.97 74.0755 1037.45 73.8724C1037.93 73.6695 1038.4 73.5993 1038.88 73.6619C1039.35 73.7289 1039.78 73.9337 1040.17 74.2764L1039 75.5024C1038.71 75.2903 1038.39 75.2138 1038.03 75.2728C1037.67 75.3404 1037.34 75.5425 1037.01 75.879C1036.78 76.1238 1036.64 76.3772 1036.6 76.6393C1036.56 76.9057 1036.62 77.1226 1036.8 77.2902C1036.93 77.4242 1037.09 77.4914 1037.27 77.492C1037.44 77.4969 1037.64 77.4368 1037.89 77.3116C1038.13 77.1909 1038.44 76.9937 1038.81 76.7202C1039.5 76.2302 1040.11 75.9644 1040.66 75.9226C1041.21 75.8809 1041.73 76.0924 1042.21 76.5573C1042.52 76.8588 1042.7 77.2145 1042.75 77.6244C1042.8 78.0387 1042.73 78.4684 1042.54 78.9135C1042.35 79.3627 1042.07 79.7906 1041.68 80.1971Z" fill="#212428"/>
<path d="M1028.49 80.8949C1029.14 80.5158 1029.82 80.3197 1030.51 80.3067C1031.2 80.2914 1031.84 80.4514 1032.43 80.7867C1033.02 81.1271 1033.5 81.6169 1033.87 82.256C1034.24 82.8951 1034.42 83.5552 1034.41 84.2362C1034.41 84.9225 1034.23 85.5613 1033.88 86.1528C1033.52 86.7525 1033.02 87.242 1032.37 87.6212C1031.72 88.0003 1031.04 88.1949 1030.36 88.2049C1029.66 88.2232 1029.02 88.062 1028.43 87.7216C1027.84 87.3863 1027.36 86.8992 1026.99 86.2601C1026.62 85.621 1026.44 84.9583 1026.44 84.272C1026.45 83.591 1026.63 82.9532 1026.99 82.3587C1027.34 81.762 1027.84 81.2741 1028.49 80.8949ZM1029.24 82.1836C1028.86 82.405 1028.56 82.6943 1028.36 83.0514C1028.15 83.4085 1028.06 83.7942 1028.06 84.2086C1028.07 84.6313 1028.19 85.0391 1028.41 85.432C1028.64 85.8301 1028.94 86.1348 1029.3 86.3459C1029.65 86.5601 1030.03 86.6668 1030.44 86.6659C1030.85 86.6651 1031.24 86.5539 1031.62 86.3325C1032 86.1111 1032.3 85.8218 1032.5 85.4647C1032.71 85.1076 1032.81 84.7204 1032.8 84.3029C1032.79 83.8885 1032.68 83.4822 1032.45 83.0841C1032.22 82.6912 1031.93 82.3851 1031.57 82.1656C1031.21 81.9545 1030.83 81.8493 1030.42 81.8502C1030.01 81.851 1029.62 81.9622 1029.24 82.1836Z" fill="#212428"/>
<path d="M1023.82 91.4037L1022.49 91.7193L1017.9 88.2331L1018.93 92.6529L1017.33 93.0308L1015.65 85.8266L1016.98 85.511L1021.57 88.9972L1020.54 84.5775L1022.14 84.1996L1023.82 91.4037Z" fill="#212428"/>
</g>
<defs>
<filter id="filter0_d_128_1772" x="956.732" y="0.438232" width="108" height="108" filterUnits="userSpaceOnUse" color-interpolation-filters="sRGB">
<feFlood flood-opacity="0" result="BackgroundImageFix"/>
<feColorMatrix in="SourceAlpha" type="matrix" values="0 0 0 0 0 0 0 0 0 0 0 0 0 0 0 0 0 0 127 0" result="hardAlpha"/>
<feOffset dy="4"/>
<feGaussianBlur stdDeviation="2"/>
<feComposite in2="hardAlpha" operator="out"/>
<feColorMatrix type="matrix" values="0 0 0 0 0.129412 0 0 0 0 0.141176 0 0 0 0 0.156863 0 0 0 0.12 0"/>
<feBlend mode="normal" in2="BackgroundImageFix" result="effect1_dropShadow_128_1772"/>
<feBlend mode="normal" in="SourceGraphic" in2="effect1_dropShadow_128_1772" result="shape"/>
</filter>
<linearGradient id="paint0_linear_128_1772" x1="1100" y1="10.0002" x2="125.5" y2="90" gradientUnits="userSpaceOnUse">
<stop stop-color="#3CB9FF"/>
<stop offset="1" stop-color="#6E75EA" stop-opacity="0"/>
</linearGradient>
<clipPath id="clip0_128_1772">
<rect y="10" width="1200" height="80" rx="8" fill="white"/>
</clipPath>
</defs>
</svg>
