<svg width="134" height="67" viewBox="0 0 134 67" fill="none" xmlns="http://www.w3.org/2000/svg">
<g filter="url(#filter0_d_128_20)">
<mask id="path-1-outside-1_128_20" maskUnits="userSpaceOnUse" x="75" y="1" width="57" height="56" fill="black">
<rect fill="white" x="75" y="1" width="57" height="56"/>
<path fill-rule="evenodd" clip-rule="evenodd" d="M122.921 42.1969C125.442 38.4037 126.911 33.851 126.911 28.9553C126.911 15.7251 116.185 5 102.955 5C89.7251 5 79 15.7251 79 28.9553C79 42.1854 89.7251 52.9105 102.955 52.9105C107.947 52.9105 112.583 51.3836 116.42 48.7712L119.108 51.4596C120.914 53.265 123.841 53.265 125.646 51.4596C127.451 49.6543 127.451 46.7272 125.646 44.9218L122.921 42.1969Z"/>
</mask>
<path fill-rule="evenodd" clip-rule="evenodd" d="M122.921 42.1969C125.442 38.4037 126.911 33.851 126.911 28.9553C126.911 15.7251 116.185 5 102.955 5C89.7251 5 79 15.7251 79 28.9553C79 42.1854 89.7251 52.9105 102.955 52.9105C107.947 52.9105 112.583 51.3836 116.42 48.7712L119.108 51.4596C120.914 53.265 123.841 53.265 125.646 51.4596C127.451 49.6543 127.451 46.7272 125.646 44.9218L122.921 42.1969Z" fill="white"/>
<path d="M122.921 42.1969L119.59 39.983L117.777 42.7101L120.093 45.0253L122.921 42.1969ZM116.42 48.7712L119.248 45.9428L116.906 43.601L114.169 45.4647L116.42 48.7712ZM122.911 28.9553C122.911 33.0392 121.688 36.8255 119.59 39.983L126.253 44.4108C129.196 39.9819 130.911 34.6628 130.911 28.9553H122.911ZM102.955 9C113.976 9 122.911 17.9343 122.911 28.9553H130.911C130.911 13.516 118.395 1 102.955 1V9ZM83 28.9553C83 17.9343 91.9343 9 102.955 9V1C87.516 1 75 13.516 75 28.9553H83ZM102.955 48.9105C91.9343 48.9105 83 39.9763 83 28.9553H75C75 44.3945 87.516 56.9105 102.955 56.9105V48.9105ZM114.169 45.4647C110.974 47.6395 107.119 48.9105 102.955 48.9105V56.9105C108.775 56.9105 114.191 55.1276 118.671 52.0777L114.169 45.4647ZM121.937 48.6312L119.248 45.9428L113.591 51.5996L116.28 54.2881L121.937 48.6312ZM122.818 48.6312C122.574 48.8745 122.18 48.8745 121.937 48.6312L116.28 54.2881C119.647 57.6555 125.107 57.6555 128.475 54.2881L122.818 48.6312ZM122.818 47.7502C123.061 47.9935 123.061 48.3879 122.818 48.6312L128.475 54.2881C131.842 50.9206 131.842 45.4609 128.475 42.0934L122.818 47.7502ZM120.093 45.0253L122.818 47.7502L128.475 42.0934L125.75 39.3685L120.093 45.0253Z" fill="white" mask="url(#path-1-outside-1_128_20)"/>
</g>
<mask id="path-3-inside-2_128_20" fill="white">
<path fill-rule="evenodd" clip-rule="evenodd" d="M122.921 42.1969C125.442 38.4037 126.911 33.851 126.911 28.9553C126.911 15.7251 116.185 5 102.955 5C89.7251 5 79 15.7251 79 28.9553C79 42.1854 89.7251 52.9105 102.955 52.9105C107.947 52.9105 112.583 51.3836 116.42 48.7712L119.108 51.4596C120.914 53.265 123.841 53.265 125.646 51.4596C127.451 49.6543 127.451 46.7272 125.646 44.9218L122.921 42.1969Z"/>
</mask>
<path fill-rule="evenodd" clip-rule="evenodd" d="M122.921 42.1969C125.442 38.4037 126.911 33.851 126.911 28.9553C126.911 15.7251 116.185 5 102.955 5C89.7251 5 79 15.7251 79 28.9553C79 42.1854 89.7251 52.9105 102.955 52.9105C107.947 52.9105 112.583 51.3836 116.42 48.7712L119.108 51.4596C120.914 53.265 123.841 53.265 125.646 51.4596C127.451 49.6543 127.451 46.7272 125.646 44.9218L122.921 42.1969Z" fill="white"/>
<path d="M122.921 42.1969L121.255 41.09L120.349 42.4535L121.507 43.6111L122.921 42.1969ZM116.42 48.7712L117.834 47.357L116.663 46.1861L115.294 47.118L116.42 48.7712ZM124.911 28.9553C124.911 33.4451 123.565 37.6146 121.255 41.09L124.587 43.3038C127.319 39.1928 128.911 34.2569 128.911 28.9553H124.911ZM102.955 7C115.081 7 124.911 16.8297 124.911 28.9553H128.911C128.911 14.6206 117.29 3 102.955 3V7ZM81 28.9553C81 16.8297 90.8297 7 102.955 7V3C88.6206 3 77 14.6206 77 28.9553H81ZM102.955 50.9105C90.8297 50.9105 81 41.0808 81 28.9553H77C77 43.29 88.6206 54.9105 102.955 54.9105V50.9105ZM115.294 47.118C111.779 49.5116 107.533 50.9105 102.955 50.9105V54.9105C108.361 54.9105 113.387 53.2556 117.545 50.4245L115.294 47.118ZM120.522 50.0454L117.834 47.357L115.006 50.1854L117.694 52.8739L120.522 50.0454ZM124.232 50.0454C123.208 51.0698 121.547 51.0698 120.522 50.0454L117.694 52.8739C120.28 55.4603 124.474 55.4603 127.06 52.8739L124.232 50.0454ZM124.232 46.336C125.256 47.3604 125.256 49.0211 124.232 50.0454L127.06 52.8739C129.647 50.2874 129.647 46.094 127.06 43.5076L124.232 46.336ZM121.507 43.6111L124.232 46.336L127.06 43.5076L124.335 40.7827L121.507 43.6111Z" fill="#212428" mask="url(#path-3-inside-2_128_20)"/>
<path d="M99.6717 25.3302C98.9317 28.0918 97.4924 30.3411 95.8133 31.7582C94.131 33.1781 92.2919 33.7065 90.654 33.2676C89.0161 32.8287 87.6876 31.4516 86.9406 29.3808C86.1951 27.314 86.0732 24.6464 86.8132 21.8848C87.5531 19.1232 88.9925 16.8739 90.6715 15.4569C92.3538 14.037 94.193 13.5086 95.8308 13.9475C97.4687 14.3863 98.7972 15.7635 99.5442 17.8343C100.29 19.9011 100.412 22.5686 99.6717 25.3302Z" fill="white" stroke="#212428" stroke-width="2"/>
<ellipse cx="90.2319" cy="23.3067" rx="4.41544" ry="6.34445" transform="rotate(15 90.2319 23.3067)" fill="#212428"/>
<path d="M113.672 27.3659C112.932 30.1275 111.492 32.3768 109.813 33.7938C108.131 35.2137 106.292 35.7421 104.654 35.3032C103.016 34.8644 101.688 33.4872 100.941 31.4164C100.195 29.3496 100.073 26.6821 100.813 23.9205C101.553 21.1589 102.992 18.9096 104.672 17.4925C106.354 16.0726 108.193 15.5442 109.831 15.9831C111.469 16.422 112.797 17.7991 113.544 19.8699C114.29 21.9367 114.412 24.6043 113.672 27.3659Z" fill="white" stroke="#212428" stroke-width="2"/>
<ellipse cx="104.232" cy="25.3424" rx="4.41544" ry="6.34445" transform="rotate(15 104.232 25.3424)" fill="#212428"/>
<circle cx="97.0001" cy="38.0356" r="2" fill="#212428"/>
<path d="M99.6717 25.3302C98.9317 28.0918 97.4924 30.3411 95.8133 31.7582C94.131 33.1781 92.2919 33.7065 90.654 33.2676C89.0161 32.8287 87.6876 31.4516 86.9406 29.3808C86.1951 27.314 86.0732 24.6464 86.8132 21.8848C87.5531 19.1232 88.9925 16.8739 90.6715 15.4569C92.3538 14.037 94.193 13.5086 95.8308 13.9475C97.4687 14.3863 98.7972 15.7635 99.5442 17.8343C100.29 19.9011 100.412 22.5686 99.6717 25.3302Z" fill="white" stroke="#212428" stroke-width="2"/>
<ellipse cx="90.2319" cy="23.3067" rx="4.41544" ry="6.34445" transform="rotate(15 90.2319 23.3067)" fill="#212428"/>
<rect y="21" width="72" height="23" rx="11.5" fill="#FDF301"/>
<rect x="28" y="44" width="76" height="23" rx="11.5" fill="#FDF301"/>
<path d="M19.072 30.551C18.136 31.559 17.02 32.369 15.724 32.981C14.446 33.593 13.069 33.917 11.593 33.953V30.119C12.871 30.011 13.96 29.588 14.86 28.85C15.778 28.094 16.417 27.185 16.777 26.123H11.863V22.451H16.939V20.345H21.583V22.451H26.659V26.123H21.475C21.331 26.627 21.214 27.005 21.124 27.257L27.253 30.362L25.282 33.764L19.072 30.551ZM35.677 24.935V29.363H32.977V34.034H28.414V20.75H32.977V24.935H35.677ZM25.579 38.3C25.489 38.534 25.399 38.732 25.309 38.894L33.679 40.46L32.734 44.105L22.501 41.729C20.143 43.115 16.768 43.808 12.376 43.808V40.136C14.14 40.136 15.724 39.983 17.128 39.677C18.55 39.353 19.621 38.894 20.341 38.3H12.619V34.844H32.977V38.3H25.579ZM61.1087 33.602H58.4087V43.808H53.8457V20.75H58.4087V29.174H61.1087V33.602ZM44.3417 21.02C46.5737 21.02 48.3197 21.938 49.5797 23.774C50.8397 25.592 51.4697 28.337 51.4697 32.009C51.4697 35.681 50.8397 38.435 49.5797 40.271C48.3197 42.089 46.5737 42.998 44.3417 42.998C42.1097 42.998 40.3547 42.089 39.0767 40.271C37.8167 38.435 37.1867 35.681 37.1867 32.009C37.1867 28.337 37.8167 25.592 39.0767 23.774C40.3547 21.938 42.1097 21.02 44.3417 21.02ZM44.3417 38.813C46.0877 38.813 46.9607 36.545 46.9607 32.009C46.9607 27.473 46.0877 25.205 44.3417 25.205C42.5777 25.205 41.6957 27.473 41.6957 32.009C41.6957 36.545 42.5777 38.813 44.3417 38.813ZM50.2865 50.23C49.0445 50.824 47.5685 51.283 45.8585 51.607C44.1665 51.931 42.3755 52.111 40.4855 52.147V48.772C42.1415 48.736 43.7075 48.574 45.1835 48.286C46.6775 47.98 47.7845 47.575 48.5045 47.071H40.7555V43.75H61.4375V47.071H53.6615L53.4185 47.584L61.9775 49.015L61.1135 52.255L50.2865 50.23ZM53.3645 56.035V57.034H61.4105V63.109H45.2645V63.919H61.6535V66.808H40.8095V60.706H56.9555V59.896H40.7555V57.034H48.8285V56.035H39.4325V52.714H62.7605V56.035H53.3645ZM87.8142 43.75V66.808H83.4942V43.75H87.8142ZM77.5002 43.858H81.7662V66.403H77.5002V56.548H74.7462C74.2962 58.528 73.5942 60.202 72.6402 61.57C71.7042 62.938 70.5972 63.964 69.3192 64.648C68.0412 65.35 66.6642 65.71 65.1882 65.728V61.462C66.9702 61.318 68.3742 60.391 69.4002 58.681C70.4262 56.953 70.9392 54.505 70.9392 51.337V48.394H65.1882V44.29H75.3132V51.175C75.3132 51.643 75.3042 51.994 75.2862 52.228H77.5002V43.858ZM94.9129 59.14H91.5649L90.3229 44.425H96.1549L94.9129 59.14ZM93.2389 61.111C94.0669 61.111 94.7509 61.381 95.2909 61.921C95.8309 62.461 96.1009 63.145 96.1009 63.973C96.1009 64.801 95.8309 65.476 95.2909 65.998C94.7509 66.538 94.0669 66.808 93.2389 66.808C92.4109 66.808 91.7269 66.538 91.1869 65.998C90.6469 65.476 90.3769 64.801 90.3769 63.973C90.3769 63.145 90.6469 62.461 91.1869 61.921C91.7269 61.381 92.4109 61.111 93.2389 61.111Z" fill="#212428"/>
<defs>
<filter id="filter0_d_128_20" x="72" y="0" width="62.0001" height="61.9105" filterUnits="userSpaceOnUse" color-interpolation-filters="sRGB">
<feFlood flood-opacity="0" result="BackgroundImageFix"/>
<feColorMatrix in="SourceAlpha" type="matrix" values="0 0 0 0 0 0 0 0 0 0 0 0 0 0 0 0 0 0 127 0" result="hardAlpha"/>
<feOffset dy="2"/>
<feGaussianBlur stdDeviation="1.5"/>
<feComposite in2="hardAlpha" operator="out"/>
<feColorMatrix type="matrix" values="0 0 0 0 0 0 0 0 0 0 0 0 0 0 0 0 0 0 0.1 0"/>
<feBlend mode="normal" in2="BackgroundImageFix" result="effect1_dropShadow_128_20"/>
<feBlend mode="normal" in="SourceGraphic" in2="effect1_dropShadow_128_20" result="shape"/>
</filter>
</defs>
</svg>
