<svg width="144" height="72" viewBox="0 0 144 72" fill="none" xmlns="http://www.w3.org/2000/svg">
<rect x="7.5" y="34.5" width="57" height="25.5" rx="4.5" fill="white" stroke="#212428" stroke-width="3"/>
<path d="M7.5 24C6.67157 24 6 24.6716 6 25.5L6 33C6 33.8284 6.67157 34.5 7.5 34.5L12 34.5L12 24L7.5 24Z" fill="#FDF301" stroke="#212428" stroke-width="3"/>
<path d="M64.5 34.5C65.3284 34.5 66 33.8284 66 33L66 25.5C66 24.6716 65.3284 24 64.5 24L60 24L60 34.5L64.5 34.5Z" fill="#FDF301" stroke="#212428" stroke-width="3"/>
<path d="M14.182 12.7982C14.5274 10.6109 16.4126 9 18.627 9H53.373C55.5874 9 57.4726 10.6109 57.818 12.7982L61.2446 34.5H10.7554L14.182 12.7982Z" fill="white" stroke="#212428" stroke-width="3"/>
<path d="M42 4.5C42 3.67157 41.3284 3 40.5 3L30 3C29.1716 3 28.5 3.67157 28.5 4.5L28.5 9L42 9L42 4.5Z" fill="#FDF301" stroke="#212428" stroke-width="3"/>
<path d="M10.5 64.5C10.5 66.9853 12.5147 69 15 69H21C23.4853 69 25.5 66.9853 25.5 64.5V60H10.5V64.5Z" fill="#FDF301" stroke="#212428" stroke-width="3"/>
<path d="M46.5 64.5C46.5 66.9853 48.5147 69 51 69H57C59.4853 69 61.5 66.9853 61.5 64.5V60H46.5V64.5Z" fill="#FDF301" stroke="#212428" stroke-width="3"/>
<rect x="13.5" y="49.5" width="7.5" height="4.5" rx="2.25" fill="#212428"/>
<rect x="51" y="49.5" width="7.5" height="4.5" rx="2.25" fill="#212428"/>
<path d="M36.934 30.3893C37.9574 34.2086 39.947 37.3145 42.2615 39.2679C44.5809 41.2255 47.101 41.9417 49.333 41.3436C51.565 40.7456 53.3893 38.8653 54.4192 36.0103C55.4469 33.1613 55.617 29.4768 54.5936 25.6574C53.5702 21.838 51.5807 18.7322 49.2662 16.7788C46.9467 14.8212 44.4266 14.105 42.1947 14.703C39.9627 15.3011 38.1383 17.1814 37.1084 20.0364C36.0807 22.8854 35.9107 26.5699 36.934 30.3893Z" fill="white" stroke="#212428" stroke-width="3"/>
<ellipse cx="6.13707" cy="8.81823" rx="6.13707" ry="8.81823" transform="matrix(-0.965926 0.258819 0.258819 0.965926 53.5939 17.499)" fill="#212428"/>
<path d="M17.4754 33.2186C18.4988 37.038 20.4883 40.1439 22.8029 42.0973C25.1223 44.0549 27.6424 44.7711 29.8744 44.173C32.1064 43.5749 33.9307 41.6947 34.9606 38.8396C35.9883 35.9906 36.1584 32.3061 35.135 28.4868C34.1116 24.6674 32.122 21.5615 29.8075 19.6081C27.4881 17.6505 24.968 16.9343 22.736 17.5324C20.504 18.1305 18.6797 20.0107 17.6498 22.8658C16.6221 25.7147 16.452 29.3992 17.4754 33.2186Z" fill="white" stroke="#212428" stroke-width="3"/>
<ellipse cx="6.13707" cy="8.81823" rx="6.13707" ry="8.81823" transform="matrix(-0.965926 0.258819 0.258819 0.965926 34.1353 20.3284)" fill="#212428"/>
<path d="M36.934 30.3893C37.9574 34.2086 39.947 37.3145 42.2615 39.2679C44.5809 41.2255 47.101 41.9417 49.333 41.3436C51.565 40.7456 53.3893 38.8653 54.4192 36.0103C55.4469 33.1613 55.617 29.4768 54.5936 25.6574C53.5702 21.838 51.5807 18.7322 49.2662 16.7788C46.9467 14.8212 44.4266 14.105 42.1947 14.703C39.9627 15.3011 38.1383 17.1814 37.1084 20.0364C36.0807 22.8854 35.9107 26.5699 36.934 30.3893Z" fill="white" stroke="#212428" stroke-width="3"/>
<ellipse cx="6.13707" cy="8.81823" rx="6.13707" ry="8.81823" transform="matrix(-0.965926 0.258819 0.258819 0.965926 53.5939 17.499)" fill="#212428"/>
<path d="M79.5 13.5C79.5 7.70101 84.201 3 90 3H126C131.799 3 136.5 7.70101 136.5 13.5V60H79.5V13.5Z" fill="white" stroke="#212428" stroke-width="3"/>
<rect x="79.5" y="13.5" width="57" height="10.5" fill="#FDF301" stroke="#212428" stroke-width="3"/>
<path d="M79.5 64.5C79.5 66.9853 81.5147 69 84 69H90C92.4853 69 94.5 66.9853 94.5 64.5V60H79.5V64.5Z" fill="#FDF301" stroke="#212428" stroke-width="3"/>
<path d="M75 24C74.1716 24 73.5 24.6716 73.5 25.5L73.5 33C73.5 33.8284 74.1716 34.5 75 34.5L79.5 34.5L79.5 24L75 24Z" fill="#FDF301" stroke="#212428" stroke-width="3"/>
<path d="M141 34.5C141.828 34.5 142.5 33.8284 142.5 33L142.5 25.5C142.5 24.6716 141.828 24 141 24L136.5 24L136.5 34.5L141 34.5Z" fill="#FDF301" stroke="#212428" stroke-width="3"/>
<path d="M121.5 64.5C121.5 66.9853 123.515 69 126 69H132C134.485 69 136.5 66.9853 136.5 64.5V60H121.5V64.5Z" fill="#FDF301" stroke="#212428" stroke-width="3"/>
<rect x="85.5" y="49.5" width="12" height="4.5" rx="2.25" fill="#212428"/>
<rect x="118.5" y="49.5" width="12" height="4.5" rx="2.25" fill="#212428"/>
<path d="M107.066 30.3893C106.043 34.2086 104.053 37.3145 101.739 39.2679C99.4191 41.2255 96.899 41.9417 94.667 41.3436C92.435 40.7456 90.6107 38.8653 89.5808 36.0103C88.5531 33.1613 88.383 29.4768 89.4064 25.6574C90.4298 21.838 92.4193 18.7322 94.7338 16.7788C97.0533 14.8212 99.5734 14.105 101.805 14.703C104.037 15.3011 105.862 17.1814 106.892 20.0364C107.919 22.8854 108.089 26.5699 107.066 30.3893Z" fill="white" stroke="#212428" stroke-width="3"/>
<ellipse cx="94.0518" cy="27.6052" rx="6.13707" ry="8.81823" transform="rotate(15 94.0518 27.6052)" fill="#212428"/>
<path d="M126.525 33.2186C125.501 37.038 123.512 40.1439 121.197 42.0973C118.878 44.0549 116.358 44.7711 114.126 44.173C111.894 43.5749 110.069 41.6947 109.039 38.8396C108.012 35.9906 107.842 32.3061 108.865 28.4868C109.888 24.6674 111.878 21.5615 114.192 19.6081C116.512 17.6505 119.032 16.9343 121.264 17.5324C123.496 18.1305 125.32 20.0107 126.35 22.8658C127.378 25.7147 127.548 29.3992 126.525 33.2186Z" fill="white" stroke="#212428" stroke-width="3"/>
<ellipse cx="113.51" cy="30.4345" rx="6.13707" ry="8.81823" transform="rotate(15 113.51 30.4345)" fill="#212428"/>
<path d="M107.066 30.3893C106.043 34.2086 104.053 37.3145 101.739 39.2679C99.4191 41.2255 96.899 41.9417 94.667 41.3436C92.435 40.7456 90.6107 38.8653 89.5808 36.0103C88.5531 33.1613 88.383 29.4768 89.4064 25.6574C90.4298 21.838 92.4193 18.7322 94.7338 16.7788C97.0533 14.8212 99.5734 14.105 101.805 14.703C104.037 15.3011 105.862 17.1814 106.892 20.0364C107.919 22.8854 108.089 26.5699 107.066 30.3893Z" fill="white" stroke="#212428" stroke-width="3"/>
<ellipse cx="94.0518" cy="27.6052" rx="6.13707" ry="8.81823" transform="rotate(15 94.0518 27.6052)" fill="#212428"/>
</svg>
