<svg width="144" height="72" viewBox="0 0 144 72" fill="none" xmlns="http://www.w3.org/2000/svg">
<g clip-path="url(#clip0_160_275)">
<circle cx="107.25" cy="39.2146" r="30.75" fill="white" stroke="#212428" stroke-width="3"/>
<path d="M129 45.9646C130.657 45.9646 132 44.2857 132 42.2146C132 40.1435 130.657 38.4646 129 38.4646" stroke="#212428" stroke-width="3" stroke-linecap="round"/>
<path d="M125.754 8.6792L116.16 5.22824C117.459 3.62862 119.812 2.90243 122.116 3.73141C124.421 4.56039 125.772 6.619 125.754 8.6792Z" fill="#FDF301" stroke="#212428" stroke-width="3"/>
<path d="M137.367 31.1395L85.8932 17.3471C89.5496 7.52698 102.649 2.01765 116.585 5.75168C130.521 9.48572 139.111 20.8068 137.367 31.1395Z" fill="#FDF301" stroke="#212428" stroke-width="3"/>
<mask id="path-5-inside-1_160_275" fill="white">
<path d="M76.3208 14.8189C76.5352 14.019 77.3572 13.5442 78.1572 13.7581L137.822 29.7131C138.622 29.9272 139.097 30.75 138.883 31.5505C138.669 32.3504 137.847 32.8252 137.047 32.6113L77.3822 16.6563C76.5816 16.4422 76.1063 15.6194 76.3208 14.8189Z"/>
</mask>
<path d="M76.3208 14.8189C76.5352 14.019 77.3572 13.5442 78.1572 13.7581L137.822 29.7131C138.622 29.9272 139.097 30.75 138.883 31.5505C138.669 32.3504 137.847 32.8252 137.047 32.6113L77.3822 16.6563C76.5816 16.4422 76.1063 15.6194 76.3208 14.8189Z" fill="white"/>
<path d="M137.822 29.7131L137.047 32.6113L137.822 29.7131ZM78.1572 13.7581L78.9322 10.8599L78.1572 13.7581ZM77.3822 16.6563L137.047 32.6113L138.597 26.815L78.9322 10.8599L77.3822 16.6563ZM137.822 29.7131L78.1572 13.7581L76.6072 19.5544L136.272 35.5095L137.822 29.7131ZM78.1572 13.7581C78.9578 13.9722 79.4331 14.7949 79.2186 15.5954L73.423 14.0425C72.7796 16.4439 74.2054 18.9122 76.6072 19.5544L78.1572 13.7581ZM135.985 30.774C136.199 29.9741 137.021 29.4992 137.822 29.7131L136.272 35.5095C138.672 36.1513 141.138 34.7267 141.781 32.3269L135.985 30.774ZM137.047 32.6113C136.246 32.3972 135.771 31.5745 135.985 30.774L141.781 32.3269C142.424 29.9255 140.998 27.4572 138.597 26.815L137.047 32.6113ZM78.9322 10.8599C76.5321 10.2181 74.066 11.6427 73.423 14.0425L79.2186 15.5954C79.0043 16.3953 78.1822 16.8702 77.3822 16.6563L78.9322 10.8599Z" fill="#212428" mask="url(#path-5-inside-1_160_275)"/>
<path d="M102.566 32.8536C101.543 36.673 99.553 39.7789 97.2385 41.7323C94.9191 43.6899 92.399 44.4061 90.167 43.808C87.935 43.2099 86.1107 41.3297 85.0808 38.4746C84.0531 35.6257 83.883 31.9411 84.9064 28.1218C85.9298 24.3024 87.9193 21.1965 90.2338 19.2431C92.5533 17.2855 95.0734 16.5693 97.3053 17.1674C99.5373 17.7655 101.362 19.6457 102.392 22.5008C103.419 25.3497 103.589 29.0343 102.566 32.8536Z" fill="white" stroke="#212428" stroke-width="3"/>
<ellipse cx="89.5518" cy="30.0695" rx="6.13707" ry="8.81823" transform="rotate(15 89.5518 30.0695)" fill="#212428"/>
<path d="M122.025 35.683C121.001 39.5023 119.012 42.6082 116.697 44.5616C114.378 46.5192 111.858 47.2354 109.626 46.6373C107.394 46.0393 105.569 44.159 104.539 41.304C103.512 38.455 103.342 34.7705 104.365 30.9511C105.388 27.1317 107.378 24.0259 109.692 22.0725C112.012 20.1149 114.532 19.3987 116.764 19.9967C118.996 20.5948 120.82 22.4751 121.85 25.3301C122.878 28.1791 123.048 31.8636 122.025 35.683Z" fill="white" stroke="#212428" stroke-width="3"/>
<ellipse cx="109.01" cy="32.8989" rx="6.13707" ry="8.81823" transform="rotate(15 109.01 32.8989)" fill="#212428"/>
<circle cx="98.9589" cy="50.5415" r="2.77982" fill="#212428"/>
<path d="M102.566 32.8536C101.543 36.673 99.553 39.7789 97.2385 41.7323C94.9191 43.6899 92.399 44.4061 90.167 43.808C87.935 43.2099 86.1107 41.3297 85.0808 38.4746C84.0531 35.6257 83.883 31.9411 84.9064 28.1218C85.9298 24.3024 87.9193 21.1965 90.2338 19.2431C92.5533 17.2855 95.0734 16.5693 97.3053 17.1674C99.5373 17.7655 101.362 19.6457 102.392 22.5008C103.419 25.3497 103.589 29.0343 102.566 32.8536Z" fill="white" stroke="#212428" stroke-width="3"/>
<ellipse cx="89.5518" cy="30.0695" rx="6.13707" ry="8.81823" transform="rotate(15 89.5518 30.0695)" fill="#212428"/>
</g>
<circle cx="13.5" cy="58.5" r="7.5" fill="#FDF301" stroke="#212428" stroke-width="3"/>
<circle cx="6" cy="66" r="3" fill="#FDF301" stroke="#212428" stroke-width="3"/>
<circle cx="9" cy="9" r="7.5" transform="matrix(-1 0 0 1 69 49.5)" fill="#FDF301" stroke="#212428" stroke-width="3"/>
<circle cx="4.5" cy="4.5" r="3" transform="matrix(-1 0 0 1 72 61.5)" fill="#FDF301" stroke="#212428" stroke-width="3"/>
<circle cx="32.25" cy="32.25" r="30.75" transform="matrix(-1 0 0 1 68.9999 6.96411)" fill="white" stroke="#212428" stroke-width="3"/>
<mask id="path-19-inside-2_160_275" fill="white">
<path fill-rule="evenodd" clip-rule="evenodd" d="M4.67712 35.8126C9.2073 38.2939 15.0093 37.4576 18.6375 33.4672L32.3226 18.4163C35.2238 15.2255 35.9857 10.8424 34.6919 7.02859C18.9705 8.01864 6.30603 20.2729 4.67712 35.8126Z"/>
</mask>
<path fill-rule="evenodd" clip-rule="evenodd" d="M4.67712 35.8126C9.2073 38.2939 15.0093 37.4576 18.6375 33.4672L32.3226 18.4163C35.2238 15.2255 35.9857 10.8424 34.6919 7.02859C18.9705 8.01864 6.30603 20.2729 4.67712 35.8126Z" fill="#FDF301"/>
<path d="M4.67712 35.8126L3.23593 38.4437L1.48539 37.4849L1.69347 35.4998L4.67712 35.8126ZM18.6375 33.4672L16.4179 31.449V31.449L18.6375 33.4672ZM32.3226 18.4163L30.103 16.3981H30.103L32.3226 18.4163ZM34.6919 7.02859L34.5034 4.03452L36.7952 3.8902L37.5329 6.06484L34.6919 7.02859ZM6.11831 33.1814C9.46118 35.0124 13.7432 34.3905 16.4179 31.449L20.8571 35.4854C16.2753 40.5246 8.95342 41.5754 3.23593 38.4437L6.11831 33.1814ZM16.4179 31.449L30.103 16.3981L34.5423 20.4345L20.8571 35.4854L16.4179 31.449ZM30.103 16.3981C32.2411 14.0465 32.8085 10.815 31.8509 7.99234L37.5329 6.06484C39.1629 10.8699 38.2066 16.4045 34.5423 20.4345L30.103 16.3981ZM34.8805 10.0227C20.6264 10.9203 9.13769 22.0356 7.66077 36.1253L1.69347 35.4998C3.47436 18.5102 17.3147 5.11697 34.5034 4.03452L34.8805 10.0227Z" fill="#212428" mask="url(#path-19-inside-2_160_275)"/>
<path d="M15 45.9641C13.3431 45.9641 12 44.2852 12 42.2141C12 40.143 13.3431 38.4641 15 38.4641" stroke="#212428" stroke-width="3" stroke-linecap="round"/>
<path d="M41.434 32.8535C42.4574 36.6729 44.447 39.7787 46.7615 41.7322C49.0809 43.6897 51.601 44.4059 53.833 43.8079C56.065 43.2098 57.8893 41.3295 58.9192 38.4745C59.9469 35.6255 60.117 31.941 59.0936 28.1216C58.0702 24.3023 56.0807 21.1964 53.7662 19.243C51.4467 17.2854 48.9266 16.5692 46.6947 17.1673C44.4627 17.7653 42.6383 19.6456 41.6084 22.5007C40.5807 25.3496 40.4107 29.0341 41.434 32.8535Z" fill="white" stroke="#212428" stroke-width="3"/>
<ellipse cx="6.13707" cy="8.81823" rx="6.13707" ry="8.81823" transform="matrix(-0.965926 0.258819 0.258819 0.965926 58.0939 19.9633)" fill="#212428"/>
<path d="M21.9754 35.6829C22.9988 39.5022 24.9883 42.6081 27.3029 44.5615C29.6223 46.5191 32.1424 47.2353 34.3744 46.6372C36.6064 46.0392 38.4307 44.1589 39.4606 41.3038C40.4883 38.4549 40.6584 34.7704 39.635 30.951C38.6116 27.1316 36.622 24.0258 34.3075 22.0724C31.9881 20.1148 29.468 19.3986 27.236 19.9966C25.004 20.5947 23.1797 22.475 22.1498 25.33C21.1221 28.179 20.952 31.8635 21.9754 35.6829Z" fill="white" stroke="#212428" stroke-width="3"/>
<ellipse cx="6.13707" cy="8.81823" rx="6.13707" ry="8.81823" transform="matrix(-0.965926 0.258819 0.258819 0.965926 38.6353 22.7926)" fill="#212428"/>
<circle cx="2.77982" cy="2.77982" r="2.77982" transform="matrix(-1 0 0 1 47.8209 47.7616)" fill="#212428"/>
<path d="M41.434 32.8535C42.4574 36.6729 44.447 39.7787 46.7615 41.7322C49.0809 43.6897 51.601 44.4059 53.833 43.8079C56.065 43.2098 57.8893 41.3295 58.9192 38.4745C59.9469 35.6255 60.117 31.941 59.0936 28.1216C58.0702 24.3023 56.0807 21.1964 53.7662 19.243C51.4467 17.2854 48.9266 16.5692 46.6947 17.1673C44.4627 17.7653 42.6383 19.6456 41.6084 22.5007C40.5807 25.3496 40.4107 29.0341 41.434 32.8535Z" fill="white" stroke="#212428" stroke-width="3"/>
<ellipse cx="6.13707" cy="8.81823" rx="6.13707" ry="8.81823" transform="matrix(-0.965926 0.258819 0.258819 0.965926 58.0939 19.9633)" fill="#212428"/>
<path d="M34.4997 21.8103C34.7771 21.9646 35.4766 21.2369 36.062 20.1848C36.6475 19.1327 36.8972 18.1546 36.6198 18.0003" stroke="#212428" stroke-width="2.25" stroke-linecap="round"/>
<path d="M53.9997 18.8103C54.2771 18.9646 54.9766 18.2369 55.562 17.1848C56.1475 16.1327 56.3972 15.1546 56.1198 15.0003" stroke="#212428" stroke-width="2.25" stroke-linecap="round"/>
<defs>
<clipPath id="clip0_160_275">
<rect width="72" height="72" fill="white" transform="translate(72)"/>
</clipPath>
</defs>
</svg>
